<?xml version="1.0" standalone="no"?>
<!DOCTYPE svg PUBLIC "-//W3C//DTD SVG 20010904//EN"
 "http://www.w3.org/TR/2001/REC-SVG-20010904/DTD/svg10.dtd">
<svg version="1.0" xmlns="http://www.w3.org/2000/svg"
 width="1500.000000pt" height="1601.000000pt" viewBox="0 0 1500.000000 1601.000000"
 preserveAspectRatio="xMidYMid meet">

<g transform="translate(0.000000,1601.000000) scale(0.100000,-0.100000)"
fill="#000000" stroke="none">
<path d="M365 14343 c-142 -30 -257 -120 -318 -251 l-32 -67 -3 -507 -3 -508
95 0 96 0 0 98 c0 53 6 120 14 147 25 95 87 169 174 206 42 18 98 19 1328 19
l1284 0 0 440 0 440 -1282 -1 c-1099 -1 -1293 -3 -1353 -16z m528 -266 c46
-43 56 -93 30 -143 -64 -123 -262 -82 -263 54 0 74 53 120 142 121 51 1 60 -2
91 -32z m480 15 c44 -29 56 -53 57 -108 0 -42 -4 -54 -27 -76 -40 -36 -66 -48
-111 -48 -50 0 -101 34 -125 82 -25 51 -8 110 42 144 45 30 122 33 164 6z
m518 -21 c33 -33 39 -45 39 -81 0 -75 -59 -130 -140 -130 -53 0 -93 21 -119
63 -56 91 10 187 128 187 49 0 57 -3 92 -39z"/>
<path d="M3010 13920 l0 -440 1495 0 1495 0 0 440 0 440 -1495 0 -1495 0 0
-440z"/>
<path d="M6010 13920 l0 -440 1495 0 1495 0 0 440 0 440 -1495 0 -1495 0 0
-440z"/>
<path d="M9010 13920 l0 -440 713 0 714 0 61 -31 c67 -33 118 -87 147 -154 12
-27 19 -79 22 -162 l6 -123 93 0 94 0 0 463 c0 254 -4 488 -9 519 -26 156
-141 288 -301 344 -52 18 -96 19 -797 22 l-743 3 0 -441z"/>
<path d="M10 11505 l0 -1495 95 0 95 0 0 1479 c0 814 3 1486 6 1495 5 14 -7
16 -95 16 l-101 0 0 -1495z"/>
<path d="M10670 11505 l0 -1495 95 0 95 0 0 1495 0 1495 -95 0 -95 0 0 -1495z"/>
<path d="M888 12809 c-2 -39 -1 -73 1 -75 2 -2 303 -4 668 -4 l663 0 0 75 0
75 -664 0 -664 0 -4 -71z"/>
<path d="M3652 11613 l3 -1158 295 0 295 0 0 1155 0 1155 -298 3 -297 2 2
-1157z"/>
<path d="M10140 12583 c-214 -191 -212 -189 -276 -197 -67 -8 -262 -29 -469
-50 -182 -19 -215 -27 -307 -77 l-78 -42 0 -53 0 -53 51 30 c109 64 155 82
224 90 233 25 378 41 515 55 109 11 161 21 177 32 46 36 308 266 311 274 5 12
-38 68 -51 68 -7 -1 -50 -35 -97 -77z"/>
<path d="M890 12380 l0 -70 450 0 451 0 -3 68 -3 67 -447 3 -448 2 0 -70z"/>
<path d="M2760 11340 l0 -890 120 0 120 0 0 890 0 890 -120 0 -120 0 0 -890z"/>
<path d="M3010 11340 l0 -890 168 2 167 3 0 885 0 885 -167 3 -168 2 0 -890z"/>
<path d="M8896 12156 c-91 -50 -114 -69 -290 -245 -186 -186 -192 -191 -245
-201 -29 -5 -70 -14 -90 -20 -158 -44 -210 -50 -401 -50 l-192 0 -186 -181
c-171 -166 -193 -184 -270 -220 -46 -21 -86 -39 -87 -39 -2 0 -46 -20 -97 -44
-71 -33 -126 -50 -236 -71 -135 -27 -143 -30 -138 -49 3 -12 6 -32 6 -45 0
-22 3 -23 38 -18 113 17 285 61 340 87 35 17 65 30 67 30 2 0 50 22 107 48 57
27 109 51 115 53 7 2 90 78 184 169 95 91 184 173 198 182 22 15 52 18 216 18
128 0 209 5 245 14 30 7 100 23 155 36 55 12 112 27 126 32 15 5 108 94 206
196 159 165 189 192 257 227 l76 39 0 53 c0 29 -1 53 -2 53 -2 0 -47 -25 -102
-54z"/>
<path d="M4554 11877 c-3 -8 -4 -47 -2 -88 l3 -74 44 -5 c43 -5 44 -6 87 -85
71 -128 70 -116 22 -206 -26 -47 -49 -79 -59 -79 -9 0 -24 15 -34 34 -18 33
-18 36 -1 75 12 26 16 51 12 73 -6 33 -48 88 -66 88 -15 0 -12 -36 7 -75 16
-33 16 -37 0 -70 -22 -46 -21 -73 3 -113 25 -41 25 -58 0 -65 -20 -5 -20 -12
-18 -419 l3 -413 293 -3 292 -2 0 720 0 720 -290 0 c-234 0 -292 -3 -296 -13z"/>
<path d="M9096 11668 l-86 -93 0 -65 1 -65 102 108 102 107 110 -25 c61 -14
135 -31 165 -37 43 -9 76 -27 150 -82 52 -39 105 -78 117 -86 12 -8 58 -43
103 -77 44 -35 81 -63 83 -63 2 0 83 80 180 177 l176 178 -32 33 -31 32 -147
-146 c-103 -103 -152 -145 -163 -141 -8 3 -87 60 -173 125 -133 100 -167 120
-213 130 -30 7 -82 18 -115 26 -33 8 -94 21 -135 30 -41 9 -82 19 -91 22 -12
3 -44 -25 -103 -88z"/>
<path d="M1860 11100 l0 -650 290 2 291 3 2 647 2 648 -292 0 -293 0 0 -650z"/>
<path d="M8897 11450 c-54 -60 -108 -112 -120 -116 -12 -3 -35 -12 -52 -19
-93 -39 -286 -105 -320 -109 -22 -3 -110 -15 -195 -27 l-154 -21 -62 -57 c-33
-31 -116 -107 -183 -169 l-122 -114 -82 7 c-45 4 -100 11 -122 17 -52 14 -321
13 -439 -1 -50 -6 -156 -14 -236 -19 l-145 -7 4 -45 c1 -25 4 -47 6 -49 2 -1
50 2 107 8 144 16 429 35 518 35 75 0 217 -14 341 -35 39 -7 72 -8 81 -3 14 8
171 152 323 297 55 52 56 53 170 67 218 26 279 40 443 101 l167 62 88 87 87
87 0 67 c0 36 -1 66 -2 66 -2 0 -47 -49 -101 -110z"/>
<path d="M960 10855 l0 -405 295 0 295 0 0 405 0 405 -295 0 -295 0 0 -405z"/>
<path d="M10 8726 c0 -787 4 -1293 10 -1325 22 -118 114 -242 218 -295 115
-58 51 -56 1464 -56 l1298 0 0 75 0 75 -1282 2 -1283 3 -46 22 c-96 44 -157
122 -179 223 -8 40 -10 390 -8 1303 l3 1247 -97 0 -98 0 0 -1274z"/>
<path d="M10668 8718 l-3 -1283 -28 -57 c-33 -67 -99 -129 -165 -155 -44 -16
-99 -18 -754 -21 l-708 -3 0 -74 0 -75 728 0 c787 0 783 0 891 54 105 54 201
186 220 306 7 43 11 495 11 1328 l0 1262 -95 0 -95 0 -2 -1282z"/>
<path d="M7205 9568 c-351 -43 -625 -348 -625 -698 0 -244 113 -450 323 -587
122 -80 265 -123 406 -123 l69 0 -4 53 c-2 28 -9 90 -14 137 -6 47 -15 135
-20 195 -6 61 -15 156 -21 213 l-11 103 169 175 c275 287 335 353 328 364 -14
23 -129 92 -200 121 -120 48 -258 64 -400 47z"/>
<path d="M9344 9568 c-99 -12 -206 -51 -298 -108 -34 -20 -36 -25 -36 -74 0
-50 1 -53 68 -119 l68 -67 39 28 c52 37 125 67 203 83 55 12 74 11 150 -5 157
-32 280 -126 345 -264 29 -62 31 -75 32 -177 0 -104 -2 -113 -32 -173 -83
-162 -212 -250 -392 -268 l-69 -6 -5 -47 c-4 -25 -9 -83 -13 -128 l-7 -83 67
0 c303 0 580 189 689 470 25 65 30 93 34 205 6 154 -6 218 -67 340 -52 106
-116 185 -198 245 -172 126 -359 174 -578 148z"/>
<path d="M12750 9553 c-14 -2 -54 -13 -90 -23 -36 -10 -90 -21 -120 -25 -85
-10 -159 -55 -241 -149 -92 -103 -120 -162 -126 -269 -5 -85 9 -193 28 -212 7
-7 9 1 4 27 -8 43 13 164 31 178 8 8 13 -18 17 -102 3 -62 12 -133 21 -158
l15 -45 -6 73 c-3 39 -3 72 1 72 3 0 19 -28 34 -62 33 -73 67 -117 79 -105 4
5 7 43 6 85 -4 108 11 175 56 262 22 42 42 94 46 115 11 63 30 85 72 85 39 0
98 -31 113 -61 9 -16 7 -19 -9 -19 -18 0 -16 -6 19 -52 41 -55 51 -81 26 -72
-16 6 -17 11 20 -101 14 -44 21 -306 16 -600 -5 -231 -33 -406 -66 -405 -6 0
-26 14 -43 30 -30 27 -33 35 -33 89 0 32 -3 73 -6 90 -6 30 -8 31 -60 31 l-54
0 0 -64 c0 -34 3 -91 6 -125 6 -56 9 -61 30 -61 28 0 28 1 13 -125 -16 -136
-11 -143 40 -53 47 82 76 103 84 62 5 -30 -26 -92 -62 -121 -21 -18 -23 -23
-10 -28 21 -8 107 30 142 63 32 30 36 16 6 -22 -27 -34 -20 -42 20 -22 16 9
36 16 44 16 15 0 348 409 367 452 11 24 9 32 -19 77 l-33 50 24 48 c12 26 61
86 108 133 61 61 94 105 118 154 19 37 36 65 39 62 3 -2 5 -94 5 -203 -1 -197
5 -253 33 -320 21 -49 28 -36 17 26 -5 29 -6 54 -1 57 5 3 9 -1 9 -8 0 -18 82
-178 92 -178 10 0 10 3 -7 75 -15 63 -20 205 -7 205 9 0 36 -82 57 -174 10
-47 13 -89 9 -128 -4 -32 -3 -58 2 -58 22 1 36 21 60 91 25 70 26 82 21 204
-5 113 -4 128 8 111 8 -11 22 -40 31 -65 27 -73 37 -74 31 -1 -3 46 -18 99
-51 179 -51 125 -49 121 -38 121 5 0 19 -20 32 -45 13 -25 25 -43 28 -41 2 3
-1 27 -7 53 -21 88 -29 282 -18 437 14 217 -11 324 -95 402 -93 86 -213 83
-316 -10 -21 -20 -42 -36 -46 -36 -3 0 -25 15 -48 33 -55 41 -151 84 -218 97
-52 10 -200 12 -250 3z m353 -703 c72 -80 -1 -258 -125 -303 -11 -4 -18 -17
-18 -30 0 -14 -3 -40 -7 -58 -6 -31 -5 -33 11 -20 16 13 17 11 12 -40 -4 -30
-3 -48 0 -41 12 25 22 10 28 -42 7 -54 7 -55 -31 -90 -21 -20 -41 -36 -45 -36
-5 0 -8 133 -8 296 0 282 1 298 21 333 42 76 109 88 162 31z"/>
<path d="M8970 9404 c-11 -13 -10 -19 8 -37 l22 -21 0 37 c0 40 -10 46 -30 21z"/>
<path d="M13830 7826 c0 -2 5 -17 11 -33 20 -51 106 -496 125 -640 l18 -143
196 0 196 0 13 63 c7 34 15 106 18 159 17 304 -163 517 -490 579 -29 5 -60 12
-69 15 -10 3 -18 3 -18 0z"/>
<path d="M13365 7343 c4 -43 8 -85 10 -93 2 -8 6 -51 9 -95 12 -141 13 -145
46 -145 17 0 30 4 30 9 0 11 -20 103 -55 256 -14 60 -25 118 -25 127 0 10 -5
18 -11 18 -8 0 -9 -23 -4 -77z"/>
<path d="M12383 7165 c-34 -129 -34 -155 -2 -155 21 0 25 14 33 115 3 39 9 91
12 118 12 89 -11 47 -43 -78z"/>
<path d="M3010 7125 l0 -75 1495 0 1495 0 0 75 0 75 -1495 0 -1495 0 0 -75z"/>
<path d="M6010 7125 l0 -75 1495 0 1495 0 0 75 0 75 -1495 0 -1495 0 0 -75z"/>
<path d="M12010 6990 c0 -5 5 -10 10 -10 6 0 10 5 10 10 0 6 -4 10 -10 10 -5
0 -10 -4 -10 -10z"/>
<path d="M12364 6939 c3 -34 6 -85 6 -112 0 -69 10 -53 15 23 2 35 7 83 11
106 6 41 5 44 -16 44 -22 0 -23 -2 -16 -61z"/>
<path d="M13404 6943 c4 -32 11 -109 17 -172 l9 -114 -37 -46 c-21 -25 -136
-165 -255 -310 -120 -145 -216 -266 -213 -269 9 -9 478 471 553 567 51 64 52
79 16 266 l-26 135 -36 0 -35 0 7 -57z"/>
<path d="M13980 6908 c0 -500 -319 -966 -834 -1217 -157 -76 -416 -157 -424
-133 -2 8 -20 3 -50 -12 -129 -64 -479 -104 -587 -67 -64 22 -85 47 -85 103 0
61 12 76 130 153 131 85 155 92 475 128 36 5 268 126 299 157 7 7 -67 10 -237
10 l-246 0 -91 -40 c-180 -79 -638 -303 -830 -406 -420 -224 -696 -417 -750
-524 -40 -81 -45 -132 -45 -480 1 -409 28 -730 120 -1424 8 -66 14 -120 13
-120 -2 -1 -21 -12 -43 -24 -108 -62 -265 -131 -325 -142 -36 -6 -82 -16 -102
-21 -37 -10 -88 -58 -88 -85 0 -113 274 -135 679 -55 29 6 87 11 127 11 72 0
73 0 101 37 l28 36 1 176 c1 97 9 241 18 321 9 80 25 233 36 340 28 272 31
291 41 288 20 -7 539 -454 539 -465 0 -16 -49 -199 -95 -358 -42 -142 -85
-301 -85 -313 0 -25 69 -45 129 -36 31 4 92 6 137 5 76 -2 85 -1 135 30 177
107 469 394 469 460 0 51 -93 173 -214 279 -37 34 -95 97 -128 141 -55 72 -59
82 -50 107 6 15 20 63 32 107 12 44 26 90 31 103 9 22 8 22 -96 22 l-105 0 -1
-42 c-1 -24 -3 -35 -6 -25 -2 9 -10 17 -16 17 -11 1 -592 766 -603 795 -7 17
10 20 226 46 96 11 202 24 235 29 68 9 75 7 75 -22 0 -11 17 -36 38 -56 l37
-37 6 70 5 70 2 -71 2 -72 90 -22 c50 -12 90 -23 90 -24 0 -1 -7 -25 -15 -52
-8 -27 -28 -98 -44 -159 -16 -60 -44 -159 -61 -220 -43 -151 -60 -210 -60
-212 0 -2 47 -3 104 -3 91 0 105 2 110 18 2 9 21 78 41 152 21 74 48 171 60
215 13 44 33 117 45 161 l22 82 226 -5 c284 -7 535 17 774 72 43 9 60 10 66 1
5 -6 23 -65 42 -131 30 -111 71 -259 105 -380 8 -27 23 -79 33 -115 l19 -65
102 -3 c73 -2 101 1 101 9 0 7 -12 53 -26 103 -15 50 -39 134 -54 186 -15 52
-38 133 -50 180 -13 47 -33 121 -46 165 -13 44 -24 88 -26 98 -2 14 16 24 97
52 55 19 118 42 141 50 l41 15 17 98 c10 53 20 104 23 112 2 8 13 65 24 125
27 153 59 321 93 485 8 36 21 101 30 145 9 44 23 112 31 150 8 39 21 104 29
145 8 41 24 118 36 170 26 118 32 147 63 290 27 123 51 230 73 323 23 95 39
87 -181 87 l-195 0 0 -92z m-1957 -3614 c6 15 11 16 19 8 9 -9 15 -9 25 0 7 6
15 9 17 7 10 -11 -28 -209 -47 -248 -20 -39 -88 -93 -101 -80 -4 4 5 43 43
179 12 41 22 97 22 125 1 41 3 45 8 20 6 -26 8 -27 14 -11z"/>
<path d="M1968 5468 l-3 -93 -27 -3 -28 -3 0 -90 0 -89 -110 0 -111 0 3 -86 3
-85 165 -2 165 -2 0 -95 0 -95 -27 -3 -28 -3 0 -89 0 -89 -27 -3 -28 -3 0 -85
0 -85 78 -3 77 -3 0 -94 0 -95 -150 0 -150 0 0 -85 0 -84 128 -3 127 -3 3 -42
3 -43 485 0 484 0 0 40 0 39 -77 3 -78 3 0 90 0 90 78 3 77 3 0 89 c0 53 -4
90 -10 90 -6 0 -10 37 -10 90 0 53 4 90 10 90 6 0 10 68 10 185 l0 185 -120 0
-120 0 0 95 0 95 110 0 110 0 0 90 c0 53 4 90 10 90 6 0 10 37 10 90 l0 90
-515 0 -514 0 -3 -92z"/>
<path d="M3010 5471 c0 -54 4 -91 10 -91 6 0 10 33 10 80 0 44 0 83 1 87 0 4
-4 9 -10 11 -7 2 -11 -27 -11 -87z"/>
<path d="M3975 5548 c-3 -7 -6 -49 -7 -93 -3 -79 -3 -80 -30 -83 l-28 -3 0
-90 0 -89 -105 0 -105 0 0 -85 0 -85 149 0 c82 0 156 -3 165 -6 13 -5 16 -23
16 -94 l0 -89 -27 -3 -28 -3 -3 -92 c-3 -92 -3 -92 -30 -95 -27 -3 -27 -4 -30
-85 l-3 -83 74 0 c43 0 78 -5 85 -12 12 -12 17 -143 6 -172 -5 -14 -28 -16
-150 -16 l-144 0 0 -85 0 -84 123 -3 122 -3 3 -42 3 -43 94 0 93 0 -15 40
c-15 37 -19 40 -55 40 l-38 0 0 95 c0 84 2 95 18 95 15 0 17 10 14 95 -5 112
17 256 55 365 24 72 86 200 120 248 l15 22 -151 0 -151 0 0 95 0 95 110 0 110
0 0 90 c0 89 0 90 24 90 24 0 25 3 28 86 2 47 1 88 -1 90 -2 2 -76 4 -163 4
-118 0 -160 -3 -163 -12z"/>
<path d="M5144 5349 c-25 -32 -22 -34 39 -31 34 2 100 -3 147 -11 47 -8 86
-14 87 -13 1 1 0 11 -3 23 -6 22 -25 27 -179 39 -62 5 -83 3 -91 -7z"/>
<path d="M4913 5316 c-28 -10 -30 -13 -18 -30 12 -16 18 -16 48 -5 31 11 34
15 24 31 -7 10 -14 17 -17 17 -3 -1 -19 -7 -37 -13z"/>
<path d="M5450 5318 c0 -18 21 -48 34 -48 8 0 16 8 18 18 4 14 -3 22 -23 29
-18 7 -29 8 -29 1z"/>
<path d="M5537 5293 c-14 -13 -6 -41 13 -46 14 -4 20 0 20 13 0 20 -23 43 -33
33z"/>
<path d="M5610 5231 c13 -24 30 -31 53 -19 23 12 42 1 27 -16 -8 -10 8 -27 65
-71 79 -61 135 -120 204 -219 l41 -59 0 41 c0 35 -8 51 -59 115 -68 84 -134
143 -229 205 -71 46 -121 57 -102 23z"/>
<path d="M4517 5071 c-105 -111 -176 -228 -222 -364 -69 -203 -58 -487 26
-669 8 -20 20 -28 37 -28 18 0 22 3 15 13 -5 6 -19 39 -31 72 -71 199 -71 422
0 620 55 153 170 312 292 403 l29 22 -40 0 c-37 0 -46 -6 -106 -69z"/>
<path d="M5148 4974 l-3 -77 -65 -17 c-63 -16 -128 -46 -160 -72 -89 -74 -119
-223 -66 -327 29 -56 111 -109 208 -135 95 -25 88 -15 88 -137 0 -89 -3 -111
-15 -115 -24 -10 -139 23 -200 56 -61 33 -65 34 -65 21 0 -5 -14 -39 -30 -75
-17 -37 -28 -71 -25 -76 4 -6 136 -10 351 -10 l344 0 30 42 c39 54 45 76 45
168 -1 60 -5 82 -24 113 -33 53 -95 92 -198 125 l-88 29 -3 112 c-3 135 -1
137 107 97 42 -15 83 -29 92 -32 13 -4 24 12 48 71 18 42 31 78 29 80 -29 25
-170 70 -243 77 l-30 3 -3 78 -3 77 -59 0 -59 0 -3 -76z m2 -361 l0 -95 -27 7
c-69 17 -104 91 -67 143 16 23 73 53 87 45 4 -2 7 -47 7 -100z m200 -363 c54
-50 27 -132 -47 -146 l-33 -6 0 89 c0 49 3 92 6 95 10 11 44 -4 74 -32z"/>
<path d="M3010 4824 c0 -132 3 -185 11 -182 7 2 12 38 13 93 l1 90 28 3 27 3
0 88 0 87 -40 1 -40 2 0 -185z"/>
<path d="M6010 4862 c0 -24 6 -55 14 -70 27 -53 65 -178 77 -252 23 -149 -2
-348 -62 -487 l-18 -43 24 0 c19 0 27 9 43 53 47 125 57 186 57 347 -1 114 -6
172 -18 220 -26 97 -61 182 -98 243 l-19 32 0 -43z"/>
<path d="M3010 4368 l0 -88 60 0 60 0 0 88 0 87 -60 0 -60 0 0 -87z"/>
<path d="M3010 4050 l0 -40 40 0 40 0 0 40 0 40 -40 0 -40 0 0 -40z"/>
<path d="M2028 3953 c-3 -44 -5 -48 -30 -51 l-28 -3 0 -89 0 -89 -82 -3 -83
-3 -3 -82 -3 -82 93 -3 93 -3 3 -92 3 -93 504 0 505 0 0 90 0 90 -65 0 -66 0
3 93 3 92 63 3 62 3 0 134 0 135 -484 0 -485 0 -3 -47z"/>
<path d="M3010 3865 c0 -151 17 -188 22 -47 3 87 3 87 31 90 25 3 27 7 27 48
l0 44 -40 0 -40 0 0 -135z"/>
<path d="M4030 3955 c0 -43 -2 -46 -30 -51 l-30 -6 0 -89 0 -89 -79 0 -80 0
-3 -86 c-2 -47 -1 -88 1 -90 2 -2 44 -4 93 -4 l88 0 0 -90 0 -90 165 0 165 0
0 80 c0 44 0 83 0 88 0 4 -37 8 -82 9 -46 1 -87 2 -91 3 -4 0 -6 42 -5 93 l3
92 78 3 77 3 0 57 c0 46 -7 72 -37 134 l-38 77 -97 0 -98 1 0 -45z"/>
<path d="M4340 3995 c0 -12 34 -71 72 -128 158 -233 428 -388 719 -411 91 -8
234 7 332 34 172 48 361 173 475 314 54 68 62 82 61 119 0 37 -2 40 -12 23
-99 -158 -231 -279 -393 -359 -345 -171 -754 -103 -1035 173 -59 58 -169 208
-169 231 0 5 -11 9 -25 9 -14 0 -25 -2 -25 -5z"/>
<path d="M4856 3992 c19 -18 131 -52 209 -65 l80 -13 3 -72 3 -72 59 0 60 0 0
69 c0 78 5 85 67 95 38 6 153 52 153 62 0 2 -145 4 -322 4 -177 0 -318 -4
-312 -8z"/>
<path d="M6010 3953 l0 -48 25 40 c31 50 31 55 0 55 -23 0 -25 -3 -25 -47z"/>
<path d="M13664 3983 c94 -330 106 -374 138 -493 17 -63 37 -135 44 -160 27
-92 76 -269 108 -385 50 -178 46 -172 105 -180 44 -6 124 0 142 11 3 2 -2 34
-12 71 -17 65 -29 107 -114 408 -21 72 -41 144 -45 160 -4 17 -24 89 -45 160
-20 72 -40 144 -45 160 -7 30 -27 101 -57 208 l-17 57 -104 0 c-94 0 -103 -2
-98 -17z"/>
<path d="M3010 3451 c0 -84 1 -91 20 -91 18 0 20 7 20 80 0 44 1 83 3 88 1 4
-8 8 -20 10 -22 3 -23 1 -23 -87z"/>
<path d="M0 505 l0 -505 7500 0 7500 0 0 505 0 505 -7500 0 -7500 0 0 -505z
m683 163 c19 -29 48 -79 66 -110 l32 -58 -48 -82 c-27 -46 -56 -84 -64 -86 -9
-1 -24 13 -36 35 -21 38 -21 38 -2 73 23 43 24 83 3 120 -47 79 -168 79 -209
0 -41 -79 8 -167 98 -177 40 -5 50 -11 68 -40 34 -55 23 -63 -83 -63 -51 0
-98 4 -103 8 -14 9 -125 201 -125 215 0 6 27 57 61 114 l61 103 124 0 124 0
33 -52z m2094 -280 c-1 -62 -3 -12 -3 112 0 124 2 174 3 113 2 -62 2 -164 0
-225z m-1837 247 c0 -20 -5 -25 -25 -25 -20 0 -25 5 -25 25 0 20 5 25 25 25
20 0 25 -5 25 -25z m1550 -30 c0 -18 5 -25 20 -25 13 0 20 -7 20 -19 0 -10 -9
-21 -20 -24 -16 -4 -20 -14 -20 -52 0 -38 4 -48 20 -52 11 -3 20 -14 20 -24 0
-14 -7 -19 -28 -19 -41 0 -52 17 -52 83 0 50 -3 60 -20 64 -11 3 -20 11 -20
19 0 7 9 18 20 24 11 6 20 20 20 30 0 13 7 20 20 20 15 0 20 -7 20 -25z
m10840 -78 l0 -103 -45 -2 c-36 -1 -47 3 -60 20 -20 29 -19 78 1 107 14 19 23
22 50 18 33 -6 34 -5 34 29 0 19 5 34 10 34 6 0 10 -41 10 -103z m-9040 -12
c0 -63 -4 -105 -10 -105 -6 0 -10 42 -10 105 0 63 4 105 10 105 6 0 10 -42 10
-105z m60 0 c0 -63 -4 -105 -10 -105 -6 0 -10 42 -10 105 0 63 4 105 10 105 6
0 10 -42 10 -105z m8820 5 c0 -60 -4 -100 -10 -100 -6 0 -10 40 -10 100 0 60
4 100 10 100 6 0 10 -40 10 -100z m398 -2 l-2 -103 -3 89 -4 88 -29 -6 c-17
-3 -30 -2 -30 2 0 7 43 28 63 31 4 1 6 -45 5 -101z m184 85 c25 -22 26 -138 1
-165 -19 -22 -52 -23 -79 -4 -16 12 -19 27 -19 86 0 59 3 74 19 86 26 19 55
18 78 -3z m158 -53 c0 -60 3 -70 18 -71 16 -1 16 -2 0 -6 -11 -3 -18 -14 -18
-29 0 -13 -4 -24 -10 -24 -5 0 -10 11 -10 25 0 23 -4 25 -45 25 -25 0 -45 2
-45 5 0 12 92 145 100 145 6 0 10 -31 10 -70z m154 54 c19 -19 21 -49 3 -65
-11 -11 -10 -16 5 -31 10 -10 18 -25 18 -33 0 -24 -38 -55 -67 -55 -51 0 -84
60 -48 90 12 10 12 15 -2 36 -14 22 -14 26 1 49 19 29 66 34 90 9z m150 0 c38
-37 32 -125 -9 -161 -26 -23 -72 -32 -60 -13 3 6 15 10 25 10 29 0 48 39 46
94 -1 37 -6 52 -21 62 -18 12 -24 11 -43 -2 -44 -31 -15 -102 37 -89 19 5 23
4 15 -5 -20 -21 -68 -8 -82 23 -31 64 44 130 92 81z m176 6 c0 -5 -18 -10 -40
-10 -22 0 -40 -4 -40 -9 0 -5 -3 -16 -6 -25 -5 -13 1 -16 29 -16 26 0 40 -6
51 -22 46 -66 -28 -144 -86 -91 -10 9 -18 23 -18 31 0 10 8 6 25 -12 28 -30
38 -32 59 -10 29 28 11 94 -25 94 -6 0 -19 -5 -30 -10 -18 -10 -19 -7 -19 40
l0 50 50 0 c28 0 50 -4 50 -10z m140 -60 c0 -60 3 -70 18 -71 16 -1 16 -2 0
-6 -11 -3 -18 -14 -18 -29 0 -13 -4 -24 -10 -24 -5 0 -10 11 -10 25 0 23 -4
25 -45 25 -25 0 -45 2 -45 5 0 12 92 145 100 145 6 0 10 -31 10 -70z m171 48
c-26 -68 -84 -182 -87 -172 -3 5 11 45 31 86 19 42 35 81 35 87 0 5 -26 12
-57 14 -56 3 -56 3 14 5 71 2 72 2 64 -20z m-11665 -78 c15 -44 29 -78 31 -76
2 1 16 38 32 82 16 43 34 80 40 82 6 2 -3 -34 -20 -80 -17 -45 -34 -91 -36
-101 -10 -33 -28 -11 -60 74 -33 88 -39 114 -24 105 5 -3 21 -42 37 -86z m932
74 c12 -8 22 -23 22 -32 0 -14 -4 -12 -18 6 -14 18 -26 23 -53 20 -29 -2 -34
-7 -34 -28 0 -19 8 -28 40 -40 58 -22 65 -28 65 -60 0 -34 -23 -50 -69 -50
-30 0 -71 29 -71 50 0 16 10 12 29 -11 20 -25 66 -28 87 -7 22 21 7 45 -34 59
-68 22 -88 55 -55 91 20 22 61 23 91 2z m-488 -14 c0 -12 7 -20 18 -20 16 -1
16 -1 0 -11 -24 -14 -26 -119 -3 -119 8 0 15 -4 15 -10 0 -5 -7 -10 -15 -10
-20 0 -35 40 -35 96 0 28 -4 44 -12 45 -10 0 -10 2 0 6 6 2 12 13 12 24 0 10
5 19 10 19 6 0 10 -9 10 -20z m593 -21 l22 0 -22 -9 c-19 -8 -23 -17 -23 -54
0 -34 6 -51 23 -66 l22 -22 -25 4 c-23 3 -25 7 -28 63 -2 42 -8 64 -19 73 -16
11 -16 12 0 12 11 0 18 9 18 23 l2 22 4 -22 c3 -15 12 -23 26 -24z m-3490 -11
c55 -64 -31 -151 -101 -102 -16 11 -22 25 -22 53 0 72 76 103 123 49z m355
-66 l3 -92 -26 0 c-25 0 -25 0 -25 88 0 92 4 105 30 100 12 -3 16 -22 18 -96z
m198 73 c26 -26 25 -45 -2 -45 -9 0 -22 7 -31 16 -22 21 -55 14 -72 -18 -13
-23 -13 -30 -1 -52 15 -29 59 -36 79 -12 11 14 51 11 51 -3 0 -12 -44 -48 -66
-55 -52 -16 -114 37 -114 97 0 83 99 129 156 72z m205 -4 c76 -77 -8 -202
-105 -156 -92 44 -62 185 39 185 27 0 44 -8 66 -29z m115 18 c4 -8 9 -8 17 0
13 13 56 14 74 3 20 -13 33 -61 33 -123 0 -56 -1 -59 -25 -59 -24 0 -25 2 -25
69 0 61 -2 70 -20 76 -36 11 -50 -12 -50 -81 0 -62 -1 -64 -25 -64 -25 0 -25
1 -25 88 0 49 3 92 7 95 10 11 31 8 39 -4z m285 -10 c20 -20 20 -22 4 -31 -11
-7 -21 -6 -28 1 -6 6 -21 11 -34 11 -33 0 -29 -28 5 -36 44 -10 72 -33 72 -58
0 -57 -94 -83 -132 -36 -17 21 -18 24 -3 33 11 6 22 4 35 -8 21 -19 55 -17 55
4 0 7 -18 19 -39 26 -21 8 -43 20 -47 27 -40 62 59 120 112 67z m197 1 c12
-12 22 -25 22 -31 0 -18 -31 -22 -49 -5 -22 20 -40 20 -63 -1 -35 -31 -15 -93
29 -93 15 0 34 7 42 14 11 10 21 12 31 6 20 -12 3 -40 -34 -58 -33 -17 -88 -1
-111 31 -18 26 -19 96 -2 118 33 42 100 52 135 19z m199 5 c26 -19 47 -77 38
-107 -18 -56 -69 -85 -121 -68 -43 15 -64 45 -64 93 0 75 87 124 147 82z m123
-55 c0 -57 3 -71 19 -79 33 -18 50 7 53 79 3 59 5 65 26 68 21 3 22 1 22 -92
0 -89 -1 -96 -20 -96 -11 0 -20 5 -20 10 0 6 -11 3 -25 -6 -21 -14 -30 -14
-55 -4 -34 14 -50 56 -50 131 0 50 5 59 32 59 16 0 18 -9 18 -70z m11130 50
c0 -5 -4 -10 -10 -10 -5 0 -10 5 -10 10 0 6 5 10 10 10 6 0 10 -4 10 -10z
m-10126 -22 c27 -38 20 -48 -32 -48 -58 0 -64 -5 -50 -36 12 -27 33 -34 66
-22 25 8 31 -6 6 -16 -50 -19 -94 13 -94 69 0 65 71 101 104 53z m137 12 c10
-6 19 -18 19 -26 0 -13 -5 -11 -27 5 -23 19 -29 20 -47 8 -31 -21 -34 -80 -5
-100 23 -17 47 -12 66 12 11 14 12 14 13 -2 0 -22 -41 -41 -73 -33 -29 7 -52
55 -43 90 12 50 53 69 97 46z m248 -16 c12 -15 21 -37 21 -49 0 -12 -9 -34
-21 -49 -42 -53 -114 -21 -112 52 2 67 73 96 112 46z m121 16 c0 -5 -10 -10
-22 -12 -21 -3 -23 -9 -26 -65 -4 -88 -22 -79 -22 10 l0 74 35 1 c19 1 35 -3
35 -8z m444 -12 c18 -25 22 -128 6 -128 -5 0 -10 5 -10 12 0 9 -3 9 -12 0 -27
-27 -88 -8 -88 27 0 26 32 51 67 51 22 0 33 5 33 15 0 25 -34 35 -64 19 -38
-19 -42 -18 -21 6 24 27 70 26 89 -2z m9176 -108 c0 -5 -4 -10 -10 -10 -5 0
-10 5 -10 10 0 6 5 10 10 10 6 0 10 -4 10 -10z"/>
<path d="M13236 535 c-9 -23 -7 -68 3 -83 5 -8 21 -12 37 -10 28 3 29 5 29 53
0 49 -1 50 -31 53 -22 2 -33 -2 -38 -13z"/>
<path d="M13700 602 c-24 -8 -30 -24 -30 -84 0 -47 4 -59 22 -72 29 -21 55 -5
64 39 13 72 -15 131 -56 117z"/>
<path d="M13851 530 l-31 -50 35 0 35 0 0 50 c0 28 -2 50 -4 50 -2 0 -18 -22
-35 -50z"/>
<path d="M14008 603 c-24 -6 -33 -42 -15 -60 10 -10 24 -13 41 -9 50 12 24 80
-26 69z"/>
<path d="M13998 509 c-41 -23 -6 -89 39 -72 35 13 43 42 17 67 -18 18 -32 20
-56 5z"/>
<path d="M14471 530 l-31 -50 35 0 35 0 0 50 c0 28 -2 50 -4 50 -2 0 -18 -22
-35 -50z"/>
<path d="M1234 516 c-14 -22 -14 -31 -4 -55 19 -46 74 -49 91 -4 23 62 -51
113 -87 59z"/>
<path d="M2044 514 c-34 -50 17 -111 65 -78 40 28 19 104 -29 104 -11 0 -27
-12 -36 -26z"/>
<path d="M3198 539 c-33 -19 -21 -39 22 -39 44 0 55 21 21 40 -23 12 -22 12
-43 -1z"/>
<path d="M3559 516 c-24 -52 17 -109 61 -86 25 14 36 55 21 86 -15 34 -67 34
-82 0z"/>
<path d="M4145 476 c-24 -17 -13 -46 18 -46 28 0 47 17 47 42 0 22 -37 24 -65
4z"/>
</g>
</svg>
