<?xml version="1.0" encoding="UTF-8"?>
<svg xmlns="http://www.w3.org/2000/svg" xmlns:xlink="http://www.w3.org/1999/xlink" width="150px" height="160px" viewBox="0 0 150 160" version="1.1">
<g id="surface1">
<path style=" stroke:none;fill-rule:nonzero;fill:rgb(0%,0%,0%);fill-opacity:1;" d="M 3.648438 16.660156 C 2.230469 16.960938 1.078125 17.859375 0.46875 19.171875 L 0.148438 19.839844 L 0.121094 24.90625 L 0.0898438 29.984375 L 2 29.984375 L 2 29.003906 C 2 28.476562 2.058594 27.804688 2.140625 27.535156 C 2.390625 26.585938 3.011719 25.847656 3.878906 25.476562 C 4.300781 25.296875 4.859375 25.289062 17.160156 25.289062 L 30 25.289062 L 30 16.492188 L 17.179688 16.5 C 6.191406 16.511719 4.25 16.53125 3.648438 16.660156 Z M 8.929688 19.320312 C 9.390625 19.75 9.488281 20.25 9.230469 20.75 C 8.589844 21.980469 6.609375 21.570312 6.601562 20.210938 C 6.601562 19.46875 7.128906 19.011719 8.019531 19 C 8.53125 18.992188 8.621094 19.019531 8.929688 19.320312 Z M 13.730469 19.171875 C 14.171875 19.460938 14.289062 19.699219 14.300781 20.25 C 14.300781 20.667969 14.261719 20.789062 14.03125 21.007812 C 13.628906 21.371094 13.371094 21.488281 12.921875 21.488281 C 12.421875 21.488281 11.910156 21.148438 11.671875 20.667969 C 11.421875 20.160156 11.589844 19.570312 12.089844 19.230469 C 12.539062 18.929688 13.308594 18.902344 13.730469 19.171875 Z M 18.910156 19.378906 C 19.238281 19.710938 19.300781 19.832031 19.300781 20.191406 C 19.300781 20.941406 18.710938 21.488281 17.898438 21.488281 C 17.371094 21.488281 16.96875 21.28125 16.710938 20.859375 C 16.148438 19.949219 16.808594 18.992188 17.988281 18.992188 C 18.480469 18.992188 18.558594 19.019531 18.910156 19.378906 Z M 18.910156 19.378906 "/>
<path style=" stroke:none;fill-rule:nonzero;fill:rgb(0%,0%,0%);fill-opacity:1;" d="M 30.101562 20.890625 L 30.101562 25.289062 L 60 25.289062 L 60 16.492188 L 30.101562 16.492188 Z M 30.101562 20.890625 "/>
<path style=" stroke:none;fill-rule:nonzero;fill:rgb(0%,0%,0%);fill-opacity:1;" d="M 60.101562 20.890625 L 60.101562 25.289062 L 90 25.289062 L 90 16.492188 L 60.101562 16.492188 Z M 60.101562 20.890625 "/>
<path style=" stroke:none;fill-rule:nonzero;fill:rgb(0%,0%,0%);fill-opacity:1;" d="M 90.101562 20.890625 L 90.101562 25.289062 L 104.371094 25.289062 L 104.980469 25.597656 C 105.648438 25.925781 106.160156 26.464844 106.449219 27.136719 C 106.570312 27.40625 106.640625 27.925781 106.671875 28.753906 L 106.730469 29.984375 L 108.601562 29.984375 L 108.601562 25.355469 C 108.601562 22.820312 108.558594 20.480469 108.511719 20.167969 C 108.25 18.609375 107.101562 17.292969 105.5 16.730469 C 104.980469 16.550781 104.539062 16.542969 97.53125 16.511719 L 90.101562 16.480469 Z M 90.101562 20.890625 "/>
<path style=" stroke:none;fill-rule:nonzero;fill:rgb(0%,0%,0%);fill-opacity:1;" d="M 0.101562 45.027344 L 0.101562 59.96875 L 2 59.96875 L 2 45.1875 C 2 37.050781 2.03125 30.335938 2.058594 30.246094 C 2.109375 30.105469 1.988281 30.085938 1.109375 30.085938 L 0.101562 30.085938 Z M 0.101562 45.027344 "/>
<path style=" stroke:none;fill-rule:nonzero;fill:rgb(0%,0%,0%);fill-opacity:1;" d="M 106.699219 45.027344 L 106.699219 59.96875 L 108.601562 59.96875 L 108.601562 30.085938 L 106.699219 30.085938 Z M 106.699219 45.027344 "/>
<path style=" stroke:none;fill-rule:nonzero;fill:rgb(0%,0%,0%);fill-opacity:1;" d="M 8.878906 31.992188 C 8.859375 32.382812 8.871094 32.722656 8.890625 32.742188 C 8.910156 32.761719 11.921875 32.785156 15.570312 32.785156 L 22.199219 32.785156 L 22.199219 31.285156 L 8.921875 31.285156 Z M 8.878906 31.992188 "/>
<path style=" stroke:none;fill-rule:nonzero;fill:rgb(0%,0%,0%);fill-opacity:1;" d="M 36.519531 43.949219 L 36.550781 55.523438 L 42.449219 55.523438 L 42.449219 32.433594 L 39.46875 32.402344 L 36.5 32.382812 Z M 36.519531 43.949219 "/>
<path style=" stroke:none;fill-rule:nonzero;fill:rgb(0%,0%,0%);fill-opacity:1;" d="M 101.398438 34.253906 C 99.261719 36.160156 99.28125 36.140625 98.640625 36.222656 C 97.96875 36.300781 96.019531 36.511719 93.949219 36.722656 C 92.128906 36.910156 91.800781 36.992188 90.878906 37.492188 L 90.101562 37.910156 L 90.101562 38.96875 L 90.609375 38.671875 C 91.699219 38.03125 92.160156 37.851562 92.851562 37.769531 C 95.179688 37.519531 96.628906 37.359375 98 37.222656 C 99.089844 37.113281 99.609375 37.011719 99.769531 36.902344 C 100.230469 36.542969 102.851562 34.242188 102.878906 34.164062 C 102.929688 34.042969 102.5 33.484375 102.371094 33.484375 C 102.300781 33.492188 101.871094 33.832031 101.398438 34.253906 Z M 101.398438 34.253906 "/>
<path style=" stroke:none;fill-rule:nonzero;fill:rgb(0%,0%,0%);fill-opacity:1;" d="M 8.898438 36.28125 L 8.898438 36.980469 L 17.910156 36.980469 L 17.878906 36.300781 L 17.851562 35.632812 L 13.378906 35.601562 L 8.898438 35.582031 Z M 8.898438 36.28125 "/>
<path style=" stroke:none;fill-rule:nonzero;fill:rgb(0%,0%,0%);fill-opacity:1;" d="M 27.601562 46.675781 L 27.601562 55.570312 L 30 55.570312 L 30 37.78125 L 27.601562 37.78125 Z M 27.601562 46.675781 "/>
<path style=" stroke:none;fill-rule:nonzero;fill:rgb(0%,0%,0%);fill-opacity:1;" d="M 30.101562 46.675781 L 30.101562 55.570312 L 31.78125 55.550781 L 33.449219 55.523438 L 33.449219 37.832031 L 31.78125 37.800781 L 30.101562 37.78125 Z M 30.101562 46.675781 "/>
<path style=" stroke:none;fill-rule:nonzero;fill:rgb(0%,0%,0%);fill-opacity:1;" d="M 88.960938 38.519531 C 88.050781 39.019531 87.820312 39.210938 86.058594 40.96875 C 84.199219 42.828125 84.140625 42.878906 83.609375 42.976562 C 83.320312 43.027344 82.910156 43.117188 82.710938 43.179688 C 81.128906 43.617188 80.609375 43.679688 78.699219 43.679688 L 76.78125 43.679688 L 74.921875 45.488281 C 73.210938 47.144531 72.988281 47.328125 72.21875 47.6875 C 71.761719 47.894531 71.359375 48.074219 71.351562 48.074219 C 71.328125 48.074219 70.890625 48.277344 70.378906 48.515625 C 69.671875 48.84375 69.121094 49.015625 68.019531 49.226562 C 66.671875 49.496094 66.589844 49.523438 66.640625 49.714844 C 66.671875 49.835938 66.699219 50.035156 66.699219 50.164062 C 66.699219 50.386719 66.730469 50.394531 67.078125 50.34375 C 68.210938 50.175781 69.929688 49.734375 70.480469 49.476562 C 70.828125 49.304688 71.128906 49.175781 71.148438 49.175781 C 71.171875 49.175781 71.648438 48.957031 72.21875 48.695312 C 72.789062 48.425781 73.308594 48.1875 73.371094 48.164062 C 73.441406 48.144531 74.269531 47.386719 75.210938 46.476562 C 76.160156 45.566406 77.050781 44.746094 77.191406 44.65625 C 77.410156 44.507812 77.710938 44.476562 79.351562 44.476562 C 80.628906 44.476562 81.441406 44.429688 81.800781 44.335938 C 82.101562 44.269531 82.800781 44.109375 83.351562 43.976562 C 83.898438 43.859375 84.46875 43.707031 84.609375 43.65625 C 84.761719 43.609375 85.691406 42.71875 86.671875 41.699219 C 88.261719 40.050781 88.558594 39.78125 89.238281 39.429688 L 90 39.039062 L 90 38.511719 C 90 38.222656 89.988281 37.980469 89.980469 37.980469 C 89.960938 37.980469 89.511719 38.230469 88.960938 38.519531 Z M 88.960938 38.519531 "/>
<path style=" stroke:none;fill-rule:nonzero;fill:rgb(0%,0%,0%);fill-opacity:1;" d="M 45.539062 41.308594 C 45.511719 41.390625 45.5 41.777344 45.519531 42.1875 L 45.550781 42.929688 L 45.988281 42.976562 C 46.421875 43.027344 46.429688 43.039062 46.859375 43.828125 C 47.570312 45.109375 47.558594 44.988281 47.078125 45.886719 C 46.820312 46.355469 46.589844 46.675781 46.488281 46.675781 C 46.398438 46.675781 46.25 46.527344 46.148438 46.335938 C 45.96875 46.007812 45.96875 45.976562 46.140625 45.585938 C 46.261719 45.328125 46.300781 45.078125 46.261719 44.859375 C 46.199219 44.527344 45.78125 43.976562 45.601562 43.976562 C 45.449219 43.976562 45.480469 44.335938 45.671875 44.726562 C 45.828125 45.058594 45.828125 45.097656 45.671875 45.425781 C 45.449219 45.886719 45.460938 46.15625 45.699219 46.558594 C 45.949219 46.964844 45.949219 47.136719 45.699219 47.207031 C 45.5 47.257812 45.5 47.328125 45.519531 51.394531 L 45.550781 55.523438 L 48.480469 55.550781 L 51.398438 55.570312 L 51.398438 41.179688 L 48.5 41.179688 C 46.160156 41.179688 45.578125 41.210938 45.539062 41.308594 Z M 45.539062 41.308594 "/>
<path style=" stroke:none;fill-rule:nonzero;fill:rgb(0%,0%,0%);fill-opacity:1;" d="M 90.960938 43.398438 L 90.101562 44.328125 L 90.101562 44.976562 L 90.109375 45.628906 L 91.128906 44.546875 L 92.148438 43.476562 L 93.25 43.726562 C 93.859375 43.867188 94.601562 44.039062 94.898438 44.097656 C 95.328125 44.1875 95.660156 44.367188 96.398438 44.917969 C 96.921875 45.308594 97.449219 45.695312 97.570312 45.777344 C 97.691406 45.855469 98.148438 46.207031 98.601562 46.546875 C 99.039062 46.898438 99.410156 47.175781 99.429688 47.175781 C 99.449219 47.175781 100.261719 46.375 101.230469 45.40625 L 102.988281 43.628906 L 102.671875 43.296875 L 102.359375 42.976562 L 100.890625 44.4375 C 99.859375 45.46875 99.371094 45.886719 99.261719 45.847656 C 99.179688 45.816406 98.390625 45.246094 97.53125 44.597656 C 96.199219 43.597656 95.859375 43.398438 95.398438 43.296875 C 95.101562 43.226562 94.578125 43.117188 94.25 43.039062 C 93.921875 42.957031 93.308594 42.828125 92.898438 42.738281 C 92.488281 42.648438 92.078125 42.546875 91.988281 42.519531 C 91.871094 42.488281 91.550781 42.769531 90.960938 43.398438 Z M 90.960938 43.398438 "/>
<path style=" stroke:none;fill-rule:nonzero;fill:rgb(0%,0%,0%);fill-opacity:1;" d="M 18.601562 49.074219 L 18.601562 55.570312 L 21.5 55.550781 L 24.410156 55.523438 L 24.429688 49.054688 L 24.449219 42.578125 L 18.601562 42.578125 Z M 18.601562 49.074219 "/>
<path style=" stroke:none;fill-rule:nonzero;fill:rgb(0%,0%,0%);fill-opacity:1;" d="M 88.96875 45.578125 C 88.429688 46.175781 87.890625 46.695312 87.769531 46.738281 C 87.648438 46.765625 87.421875 46.855469 87.25 46.925781 C 86.320312 47.316406 84.390625 47.976562 84.050781 48.015625 C 83.828125 48.046875 82.949219 48.164062 82.101562 48.285156 L 80.558594 48.496094 L 79.941406 49.066406 C 79.609375 49.375 78.78125 50.136719 78.109375 50.753906 L 76.890625 51.894531 L 76.070312 51.824219 C 75.621094 51.785156 75.070312 51.714844 74.851562 51.652344 C 74.328125 51.515625 71.640625 51.523438 70.460938 51.664062 C 69.960938 51.722656 68.898438 51.804688 68.101562 51.855469 L 66.648438 51.925781 L 66.691406 52.375 C 66.699219 52.625 66.730469 52.84375 66.75 52.863281 C 66.769531 52.875 67.25 52.84375 67.820312 52.785156 C 69.261719 52.625 72.109375 52.433594 73 52.433594 C 73.75 52.433594 75.171875 52.574219 76.410156 52.785156 C 76.800781 52.855469 77.128906 52.863281 77.21875 52.8125 C 77.359375 52.734375 78.929688 51.292969 80.449219 49.84375 C 81 49.324219 81.011719 49.316406 82.148438 49.175781 C 84.328125 48.914062 84.941406 48.777344 86.578125 48.164062 L 88.25 47.546875 L 89.128906 46.675781 L 90 45.808594 L 90 45.136719 C 90 44.777344 89.988281 44.476562 89.980469 44.476562 C 89.960938 44.476562 89.511719 44.96875 88.96875 45.578125 Z M 88.96875 45.578125 "/>
<path style=" stroke:none;fill-rule:nonzero;fill:rgb(0%,0%,0%);fill-opacity:1;" d="M 9.601562 51.523438 L 9.601562 55.570312 L 15.5 55.570312 L 15.5 47.476562 L 9.601562 47.476562 Z M 9.601562 51.523438 "/>
<path style=" stroke:none;fill-rule:nonzero;fill:rgb(0%,0%,0%);fill-opacity:1;" d="M 0.101562 72.804688 C 0.101562 80.667969 0.140625 85.726562 0.199219 86.046875 C 0.421875 87.226562 1.339844 88.464844 2.378906 88.996094 C 3.53125 89.574219 2.890625 89.554688 17.019531 89.554688 L 30 89.554688 L 30 88.054688 L 17.179688 88.035156 L 4.351562 88.007812 L 3.890625 87.785156 C 2.929688 87.347656 2.320312 86.566406 2.101562 85.558594 C 2.019531 85.15625 2 81.660156 2.019531 72.535156 L 2.050781 60.070312 L 0.101562 60.070312 Z M 0.101562 72.804688 "/>
<path style=" stroke:none;fill-rule:nonzero;fill:rgb(0%,0%,0%);fill-opacity:1;" d="M 106.679688 72.882812 L 106.648438 85.707031 L 106.371094 86.277344 C 106.039062 86.945312 105.378906 87.566406 104.71875 87.824219 C 104.28125 87.984375 103.730469 88.007812 97.179688 88.035156 L 90.101562 88.066406 L 90.101562 89.554688 L 97.378906 89.554688 C 105.25 89.554688 105.210938 89.554688 106.289062 89.015625 C 107.339844 88.476562 108.300781 87.15625 108.488281 85.957031 C 108.558594 85.527344 108.601562 81.007812 108.601562 72.683594 L 108.601562 60.070312 L 106.699219 60.070312 Z M 106.679688 72.882812 "/>
<path style=" stroke:none;fill-rule:nonzero;fill:rgb(0%,0%,0%);fill-opacity:1;" d="M 72.050781 64.386719 C 68.539062 64.816406 65.800781 67.867188 65.800781 71.363281 C 65.800781 73.804688 66.929688 75.863281 69.03125 77.230469 C 70.25 78.03125 71.679688 78.460938 73.089844 78.460938 L 73.78125 78.460938 L 73.738281 77.929688 C 73.71875 77.652344 73.648438 77.03125 73.601562 76.5625 C 73.539062 76.09375 73.449219 75.210938 73.398438 74.613281 C 73.339844 74.003906 73.25 73.054688 73.191406 72.484375 L 73.078125 71.453125 L 74.769531 69.707031 C 77.519531 66.835938 78.121094 66.175781 78.050781 66.066406 C 77.910156 65.835938 76.761719 65.148438 76.050781 64.859375 C 74.851562 64.378906 73.46875 64.21875 72.050781 64.386719 Z M 72.050781 64.386719 "/>
<path style=" stroke:none;fill-rule:nonzero;fill:rgb(0%,0%,0%);fill-opacity:1;" d="M 93.441406 64.386719 C 92.449219 64.507812 91.378906 64.898438 90.460938 65.46875 C 90.121094 65.667969 90.101562 65.71875 90.101562 66.207031 C 90.101562 66.707031 90.109375 66.738281 90.78125 67.394531 L 91.460938 68.066406 L 91.851562 67.785156 C 92.371094 67.417969 93.101562 67.117188 93.878906 66.957031 C 94.429688 66.835938 94.621094 66.847656 95.378906 67.007812 C 96.949219 67.328125 98.179688 68.265625 98.828125 69.644531 C 99.121094 70.265625 99.140625 70.394531 99.148438 71.414062 C 99.148438 72.453125 99.128906 72.542969 98.828125 73.144531 C 98 74.761719 96.710938 75.640625 94.910156 75.820312 L 94.21875 75.882812 L 94.171875 76.351562 C 94.128906 76.601562 94.078125 77.179688 94.039062 77.632812 L 93.96875 78.460938 L 94.640625 78.460938 C 97.671875 78.460938 100.441406 76.570312 101.53125 73.761719 C 101.78125 73.113281 101.828125 72.832031 101.871094 71.714844 C 101.929688 70.175781 101.808594 69.535156 101.199219 68.316406 C 100.679688 67.257812 100.039062 66.464844 99.21875 65.867188 C 97.5 64.609375 95.628906 64.128906 93.441406 64.386719 Z M 93.441406 64.386719 "/>
<path style=" stroke:none;fill-rule:nonzero;fill:rgb(0%,0%,0%);fill-opacity:1;" d="M 127.5 64.539062 C 127.359375 64.558594 126.960938 64.667969 126.601562 64.769531 C 126.238281 64.867188 125.699219 64.976562 125.398438 65.015625 C 124.550781 65.117188 123.808594 65.566406 122.988281 66.507812 C 122.070312 67.535156 121.789062 68.125 121.730469 69.195312 C 121.679688 70.046875 121.820312 71.125 122.011719 71.3125 C 122.078125 71.382812 122.101562 71.304688 122.050781 71.042969 C 121.96875 70.613281 122.179688 69.40625 122.359375 69.265625 C 122.441406 69.183594 122.488281 69.445312 122.53125 70.285156 C 122.558594 70.90625 122.648438 71.613281 122.738281 71.863281 L 122.890625 72.3125 L 122.828125 71.585938 C 122.800781 71.195312 122.800781 70.863281 122.839844 70.863281 C 122.871094 70.863281 123.03125 71.144531 123.179688 71.484375 C 123.511719 72.214844 123.851562 72.652344 123.96875 72.535156 C 124.011719 72.484375 124.039062 72.105469 124.03125 71.683594 C 123.988281 70.605469 124.140625 69.933594 124.589844 69.066406 C 124.808594 68.644531 125.011719 68.125 125.050781 67.917969 C 125.160156 67.285156 125.351562 67.066406 125.769531 67.066406 C 126.160156 67.066406 126.75 67.375 126.898438 67.675781 C 126.988281 67.835938 126.96875 67.867188 126.808594 67.867188 C 126.628906 67.867188 126.648438 67.925781 127 68.386719 C 127.410156 68.933594 127.511719 69.195312 127.261719 69.105469 C 127.101562 69.046875 127.089844 68.996094 127.460938 70.113281 C 127.601562 70.554688 127.671875 73.171875 127.621094 76.113281 C 127.570312 78.421875 127.289062 80.167969 126.960938 80.160156 C 126.898438 80.160156 126.699219 80.019531 126.53125 79.859375 C 126.230469 79.589844 126.199219 79.511719 126.199219 78.96875 C 126.199219 78.652344 126.171875 78.242188 126.140625 78.070312 C 126.078125 77.769531 126.058594 77.761719 125.539062 77.761719 L 125 77.761719 L 125 78.402344 C 125 78.742188 125.03125 79.308594 125.058594 79.648438 C 125.121094 80.210938 125.148438 80.261719 125.359375 80.261719 C 125.640625 80.261719 125.640625 80.25 125.488281 81.507812 C 125.328125 82.867188 125.378906 82.9375 125.890625 82.039062 C 126.359375 81.21875 126.648438 81.007812 126.730469 81.417969 C 126.78125 81.71875 126.46875 82.339844 126.109375 82.628906 C 125.898438 82.808594 125.878906 82.859375 126.011719 82.910156 C 126.21875 82.988281 127.078125 82.609375 127.429688 82.277344 C 127.75 81.980469 127.789062 82.117188 127.488281 82.5 C 127.21875 82.839844 127.289062 82.917969 127.691406 82.71875 C 127.851562 82.628906 128.050781 82.558594 128.128906 82.558594 C 128.28125 82.558594 131.609375 78.472656 131.800781 78.039062 C 131.910156 77.800781 131.890625 77.722656 131.609375 77.269531 L 131.28125 76.773438 L 131.519531 76.292969 C 131.640625 76.03125 132.128906 75.433594 132.601562 74.960938 C 133.210938 74.351562 133.539062 73.914062 133.78125 73.421875 C 133.96875 73.054688 134.140625 72.773438 134.171875 72.804688 C 134.199219 72.824219 134.21875 73.742188 134.21875 74.832031 C 134.210938 76.800781 134.269531 77.359375 134.550781 78.03125 C 134.761719 78.519531 134.828125 78.390625 134.71875 77.769531 C 134.671875 77.480469 134.660156 77.230469 134.710938 77.203125 C 134.761719 77.171875 134.800781 77.210938 134.800781 77.28125 C 134.800781 77.460938 135.621094 79.058594 135.71875 79.058594 C 135.820312 79.058594 135.820312 79.03125 135.648438 78.3125 C 135.5 77.679688 135.449219 76.261719 135.578125 76.261719 C 135.671875 76.261719 135.941406 77.082031 136.148438 78 C 136.25 78.472656 136.28125 78.890625 136.238281 79.28125 C 136.199219 79.601562 136.210938 79.859375 136.261719 79.859375 C 136.480469 79.851562 136.621094 79.648438 136.859375 78.949219 C 137.109375 78.25 137.121094 78.132812 137.070312 76.910156 C 137.019531 75.78125 137.03125 75.632812 137.148438 75.800781 C 137.230469 75.910156 137.371094 76.203125 137.460938 76.453125 C 137.730469 77.179688 137.828125 77.191406 137.769531 76.460938 C 137.738281 76.003906 137.589844 75.472656 137.261719 74.671875 C 136.75 73.421875 136.769531 73.464844 136.878906 73.464844 C 136.929688 73.464844 137.070312 73.664062 137.199219 73.914062 C 137.328125 74.164062 137.449219 74.34375 137.480469 74.324219 C 137.5 74.292969 137.46875 74.054688 137.410156 73.792969 C 137.199219 72.914062 137.121094 70.972656 137.230469 69.425781 C 137.371094 67.257812 137.121094 66.1875 136.28125 65.40625 C 135.351562 64.546875 134.148438 64.578125 133.121094 65.507812 C 132.910156 65.707031 132.699219 65.867188 132.660156 65.867188 C 132.628906 65.867188 132.410156 65.71875 132.179688 65.539062 C 131.628906 65.128906 130.671875 64.699219 130 64.566406 C 129.480469 64.46875 128 64.449219 127.5 64.539062 Z M 131.03125 71.5625 C 131.75 72.363281 131.019531 74.144531 129.78125 74.59375 C 129.671875 74.632812 129.601562 74.761719 129.601562 74.890625 C 129.601562 75.03125 129.570312 75.292969 129.53125 75.472656 C 129.46875 75.78125 129.480469 75.800781 129.640625 75.671875 C 129.800781 75.542969 129.808594 75.5625 129.761719 76.070312 C 129.71875 76.371094 129.730469 76.550781 129.761719 76.480469 C 129.878906 76.230469 129.980469 76.382812 130.039062 76.902344 C 130.109375 77.441406 130.109375 77.453125 129.730469 77.800781 C 129.519531 78 129.320312 78.160156 129.28125 78.160156 C 129.230469 78.160156 129.199219 76.832031 129.199219 75.203125 C 129.199219 72.382812 129.210938 72.222656 129.410156 71.875 C 129.828125 71.113281 130.5 70.996094 131.03125 71.5625 Z M 131.03125 71.5625 "/>
<path style=" stroke:none;fill-rule:nonzero;fill:rgb(0%,0%,0%);fill-opacity:1;" d="M 89.699219 66.027344 C 89.589844 66.15625 89.601562 66.21875 89.78125 66.398438 L 90 66.605469 L 90 66.238281 C 90 65.835938 89.898438 65.777344 89.699219 66.027344 Z M 89.699219 66.027344 "/>
<path style=" stroke:none;fill-rule:nonzero;fill:rgb(0%,0%,0%);fill-opacity:1;" d="M 138.300781 81.800781 C 138.300781 81.820312 138.351562 81.96875 138.410156 82.128906 C 138.609375 82.640625 139.46875 87.085938 139.660156 88.527344 L 139.839844 89.953125 L 143.761719 89.953125 L 143.890625 89.324219 C 143.960938 88.984375 144.039062 88.265625 144.070312 87.734375 C 144.238281 84.699219 142.441406 82.570312 139.171875 81.949219 C 138.878906 81.898438 138.570312 81.828125 138.480469 81.800781 C 138.378906 81.769531 138.300781 81.769531 138.300781 81.800781 Z M 138.300781 81.800781 "/>
<path style=" stroke:none;fill-rule:nonzero;fill:rgb(0%,0%,0%);fill-opacity:1;" d="M 133.648438 86.625 C 133.691406 87.054688 133.730469 87.476562 133.75 87.554688 C 133.769531 87.636719 133.808594 88.066406 133.839844 88.503906 C 133.960938 89.914062 133.96875 89.953125 134.300781 89.953125 C 134.46875 89.953125 134.601562 89.914062 134.601562 89.863281 C 134.601562 89.753906 134.398438 88.835938 134.050781 87.304688 C 133.910156 86.707031 133.800781 86.125 133.800781 86.035156 C 133.800781 85.9375 133.75 85.855469 133.691406 85.855469 C 133.609375 85.855469 133.601562 86.085938 133.648438 86.625 Z M 133.648438 86.625 "/>
<path style=" stroke:none;fill-rule:nonzero;fill:rgb(0%,0%,0%);fill-opacity:1;" d="M 123.828125 88.40625 C 123.488281 89.695312 123.488281 89.953125 123.808594 89.953125 C 124.019531 89.953125 124.058594 89.816406 124.140625 88.804688 C 124.171875 88.414062 124.230469 87.894531 124.261719 87.625 C 124.378906 86.738281 124.148438 87.15625 123.828125 88.40625 Z M 123.828125 88.40625 "/>
<path style=" stroke:none;fill-rule:nonzero;fill:rgb(0%,0%,0%);fill-opacity:1;" d="M 30.101562 88.804688 L 30.101562 89.554688 L 60 89.554688 L 60 88.054688 L 30.101562 88.054688 Z M 30.101562 88.804688 "/>
<path style=" stroke:none;fill-rule:nonzero;fill:rgb(0%,0%,0%);fill-opacity:1;" d="M 60.101562 88.804688 L 60.101562 89.554688 L 90 89.554688 L 90 88.054688 L 60.101562 88.054688 Z M 60.101562 88.804688 "/>
<path style=" stroke:none;fill-rule:nonzero;fill:rgb(0%,0%,0%);fill-opacity:1;" d="M 120.101562 90.15625 C 120.101562 90.203125 120.148438 90.253906 120.199219 90.253906 C 120.261719 90.253906 120.300781 90.203125 120.300781 90.15625 C 120.300781 90.09375 120.261719 90.054688 120.199219 90.054688 C 120.148438 90.054688 120.101562 90.09375 120.101562 90.15625 Z M 120.101562 90.15625 "/>
<path style=" stroke:none;fill-rule:nonzero;fill:rgb(0%,0%,0%);fill-opacity:1;" d="M 123.640625 90.664062 C 123.671875 91.003906 123.699219 91.515625 123.699219 91.785156 C 123.699219 92.472656 123.800781 92.3125 123.851562 91.554688 C 123.871094 91.203125 123.921875 90.726562 123.960938 90.496094 C 124.019531 90.085938 124.011719 90.054688 123.800781 90.054688 C 123.578125 90.054688 123.570312 90.074219 123.640625 90.664062 Z M 123.640625 90.664062 "/>
<path style=" stroke:none;fill-rule:nonzero;fill:rgb(0%,0%,0%);fill-opacity:1;" d="M 134.039062 90.625 C 134.078125 90.945312 134.148438 91.714844 134.210938 92.34375 L 134.300781 93.484375 L 133.929688 93.941406 C 133.71875 94.191406 132.570312 95.59375 131.378906 97.042969 C 130.179688 98.492188 129.21875 99.699219 129.25 99.730469 C 129.339844 99.820312 134.03125 95.023438 134.78125 94.0625 C 135.289062 93.421875 135.300781 93.273438 134.941406 91.402344 L 134.679688 90.054688 L 133.96875 90.054688 Z M 134.039062 90.625 "/>
<path style=" stroke:none;fill-rule:nonzero;fill:rgb(0%,0%,0%);fill-opacity:1;" d="M 139.800781 90.972656 C 139.800781 95.972656 136.609375 100.628906 131.460938 103.136719 C 129.890625 103.898438 127.300781 104.707031 127.21875 104.46875 C 127.199219 104.386719 127.019531 104.4375 126.71875 104.585938 C 125.429688 105.226562 121.929688 105.628906 120.851562 105.257812 C 120.210938 105.039062 120 104.789062 120 104.226562 C 120 103.617188 120.121094 103.46875 121.300781 102.699219 C 122.609375 101.847656 122.851562 101.777344 126.050781 101.417969 C 126.410156 101.371094 128.730469 100.160156 129.039062 99.851562 C 129.109375 99.78125 128.371094 99.75 126.671875 99.75 L 124.210938 99.75 L 123.300781 100.148438 C 121.5 100.941406 116.921875 103.179688 115 104.207031 C 110.800781 106.445312 108.039062 108.375 107.5 109.445312 C 107.101562 110.253906 107.050781 110.765625 107.050781 114.242188 C 107.058594 118.332031 107.328125 121.539062 108.25 128.476562 C 108.328125 129.136719 108.390625 129.675781 108.378906 129.675781 C 108.359375 129.683594 108.171875 129.796875 107.949219 129.914062 C 106.871094 130.535156 105.300781 131.222656 104.699219 131.335938 C 104.339844 131.394531 103.878906 131.496094 103.679688 131.542969 C 103.308594 131.644531 102.800781 132.125 102.800781 132.394531 C 102.800781 133.523438 105.539062 133.742188 109.589844 132.945312 C 109.878906 132.882812 110.460938 132.832031 110.859375 132.832031 C 111.578125 132.832031 111.589844 132.832031 111.871094 132.464844 L 112.148438 132.105469 L 112.160156 130.34375 C 112.171875 129.375 112.25 127.9375 112.339844 127.136719 C 112.429688 126.335938 112.589844 124.808594 112.699219 123.738281 C 112.980469 121.019531 113.011719 120.828125 113.109375 120.859375 C 113.308594 120.929688 118.5 125.398438 118.5 125.507812 C 118.5 125.667969 118.011719 127.496094 117.550781 129.085938 C 117.128906 130.503906 116.699219 132.09375 116.699219 132.214844 C 116.699219 132.464844 117.390625 132.664062 117.988281 132.574219 C 118.300781 132.535156 118.910156 132.515625 119.359375 132.523438 C 120.121094 132.542969 120.210938 132.535156 120.710938 132.222656 C 122.480469 131.15625 125.398438 128.285156 125.398438 127.625 C 125.398438 127.117188 124.46875 125.898438 123.261719 124.835938 C 122.890625 124.496094 122.308594 123.867188 121.980469 123.429688 C 121.429688 122.707031 121.390625 122.609375 121.480469 122.359375 C 121.539062 122.207031 121.679688 121.730469 121.800781 121.289062 C 121.921875 120.847656 122.058594 120.390625 122.109375 120.261719 C 122.199219 120.039062 122.191406 120.039062 121.148438 120.039062 L 120.101562 120.039062 L 120.089844 120.460938 C 120.078125 120.699219 120.058594 120.808594 120.03125 120.710938 C 120.011719 120.621094 119.929688 120.539062 119.871094 120.539062 C 119.761719 120.53125 113.949219 112.882812 113.839844 112.59375 C 113.769531 112.421875 113.941406 112.394531 116.101562 112.132812 C 117.058594 112.023438 118.121094 111.894531 118.449219 111.84375 C 119.128906 111.753906 119.199219 111.773438 119.199219 112.0625 C 119.199219 112.175781 119.371094 112.421875 119.578125 112.625 L 119.949219 112.992188 L 120.011719 112.292969 L 120.058594 111.59375 L 120.078125 112.304688 L 120.101562 113.023438 L 121 113.242188 C 121.5 113.363281 121.898438 113.472656 121.898438 113.484375 C 121.898438 113.492188 121.828125 113.734375 121.75 114.003906 C 121.671875 114.273438 121.46875 114.984375 121.308594 115.59375 C 121.148438 116.191406 120.871094 117.179688 120.699219 117.792969 C 120.269531 119.300781 120.101562 119.890625 120.101562 119.910156 C 120.101562 119.929688 120.570312 119.941406 121.140625 119.941406 C 122.050781 119.941406 122.191406 119.921875 122.238281 119.761719 C 122.261719 119.671875 122.449219 118.980469 122.648438 118.242188 C 122.859375 117.5 123.128906 116.53125 123.25 116.09375 C 123.378906 115.652344 123.578125 114.921875 123.699219 114.484375 L 123.921875 113.664062 L 126.179688 113.714844 C 129.019531 113.78125 131.53125 113.542969 133.921875 112.992188 C 134.351562 112.902344 134.519531 112.894531 134.578125 112.984375 C 134.628906 113.042969 134.808594 113.632812 135 114.292969 C 135.300781 115.402344 135.710938 116.882812 136.050781 118.089844 C 136.128906 118.359375 136.28125 118.878906 136.378906 119.242188 L 136.570312 119.890625 L 137.589844 119.921875 C 138.320312 119.941406 138.601562 119.910156 138.601562 119.832031 C 138.601562 119.761719 138.480469 119.300781 138.339844 118.800781 C 138.191406 118.300781 137.949219 117.460938 137.800781 116.941406 C 137.648438 116.421875 137.421875 115.613281 137.300781 115.140625 C 137.171875 114.671875 136.96875 113.933594 136.839844 113.492188 C 136.710938 113.054688 136.601562 112.613281 136.578125 112.515625 C 136.558594 112.375 136.738281 112.273438 137.550781 111.992188 C 138.101562 111.804688 138.730469 111.574219 138.960938 111.496094 L 139.371094 111.34375 L 139.539062 110.363281 C 139.640625 109.835938 139.738281 109.324219 139.769531 109.246094 C 139.789062 109.164062 139.898438 108.59375 140.011719 107.996094 C 140.28125 106.464844 140.601562 104.789062 140.941406 103.148438 C 141.019531 102.789062 141.148438 102.140625 141.238281 101.699219 C 141.328125 101.257812 141.46875 100.578125 141.550781 100.199219 C 141.628906 99.808594 141.761719 99.160156 141.839844 98.75 C 141.921875 98.339844 142.078125 97.570312 142.199219 97.050781 C 142.460938 95.871094 142.519531 95.582031 142.828125 94.152344 C 143.101562 92.921875 143.339844 91.855469 143.558594 90.925781 C 143.789062 89.976562 143.949219 90.054688 141.75 90.054688 L 139.800781 90.054688 Z M 120.230469 127.097656 C 120.289062 126.945312 120.339844 126.9375 120.421875 127.015625 C 120.511719 127.105469 120.570312 127.105469 120.671875 127.015625 C 120.738281 126.957031 120.820312 126.925781 120.839844 126.945312 C 120.941406 127.054688 120.558594 129.035156 120.371094 129.425781 C 120.171875 129.816406 119.488281 130.355469 119.359375 130.226562 C 119.320312 130.183594 119.410156 129.796875 119.789062 128.4375 C 119.910156 128.027344 120.011719 127.464844 120.011719 127.1875 C 120.019531 126.777344 120.039062 126.738281 120.089844 126.988281 C 120.148438 127.246094 120.171875 127.257812 120.230469 127.097656 Z M 120.230469 127.097656 "/>
<path style=" stroke:none;fill-rule:nonzero;fill:rgb(0%,0%,0%);fill-opacity:1;" d="M 19.679688 105.367188 L 19.648438 106.296875 L 19.378906 106.328125 L 19.101562 106.355469 L 19.101562 108.144531 L 16.890625 108.144531 L 16.921875 109.003906 L 16.949219 109.855469 L 18.601562 109.875 L 20.25 109.894531 L 20.25 111.792969 L 19.980469 111.824219 L 19.699219 111.855469 L 19.699219 113.632812 L 19.429688 113.664062 L 19.148438 113.691406 L 19.148438 115.390625 L 19.929688 115.421875 L 20.699219 115.453125 L 20.699219 117.339844 L 17.699219 117.339844 L 17.699219 119.03125 L 18.980469 119.058594 L 20.25 119.089844 L 20.28125 119.511719 L 20.308594 119.941406 L 30 119.941406 L 30 119.152344 L 29.230469 119.121094 L 28.449219 119.089844 L 28.449219 117.292969 L 29.230469 117.261719 L 30 117.230469 L 30 116.34375 C 30 115.8125 29.960938 115.441406 29.898438 115.441406 C 29.839844 115.441406 29.800781 115.074219 29.800781 114.542969 C 29.800781 114.011719 29.839844 113.644531 29.898438 113.644531 C 29.960938 113.644531 30 112.964844 30 111.792969 L 30 109.945312 L 27.601562 109.945312 L 27.601562 108.046875 L 29.800781 108.046875 L 29.800781 107.144531 C 29.800781 106.617188 29.839844 106.246094 29.898438 106.246094 C 29.960938 106.246094 30 105.878906 30 105.347656 L 30 104.449219 L 19.710938 104.449219 Z M 19.679688 105.367188 "/>
<path style=" stroke:none;fill-rule:nonzero;fill:rgb(0%,0%,0%);fill-opacity:1;" d="M 30.101562 105.335938 C 30.101562 105.878906 30.140625 106.246094 30.199219 106.246094 C 30.261719 106.246094 30.300781 105.917969 30.300781 105.449219 C 30.300781 105.007812 30.300781 104.617188 30.308594 104.578125 C 30.308594 104.539062 30.269531 104.488281 30.210938 104.46875 C 30.140625 104.449219 30.101562 104.738281 30.101562 105.335938 Z M 30.101562 105.335938 "/>
<path style=" stroke:none;fill-rule:nonzero;fill:rgb(0%,0%,0%);fill-opacity:1;" d="M 39.75 104.566406 C 39.71875 104.636719 39.691406 105.058594 39.679688 105.496094 C 39.648438 106.285156 39.648438 106.296875 39.378906 106.328125 L 39.101562 106.355469 L 39.101562 108.144531 L 37 108.144531 L 37 109.84375 L 38.488281 109.84375 C 39.308594 109.84375 40.050781 109.875 40.140625 109.90625 C 40.269531 109.953125 40.300781 110.136719 40.300781 110.84375 L 40.300781 111.734375 L 40.03125 111.765625 L 39.75 111.792969 L 39.71875 112.714844 C 39.691406 113.632812 39.691406 113.632812 39.421875 113.664062 C 39.148438 113.691406 39.148438 113.703125 39.121094 114.511719 L 39.089844 115.34375 L 39.828125 115.34375 C 40.261719 115.34375 40.609375 115.390625 40.679688 115.460938 C 40.800781 115.582031 40.851562 116.890625 40.738281 117.179688 C 40.691406 117.320312 40.460938 117.339844 39.238281 117.339844 L 37.800781 117.339844 L 37.800781 119.03125 L 39.03125 119.058594 L 40.25 119.089844 L 40.28125 119.511719 L 40.308594 119.941406 L 42.179688 119.941406 L 42.03125 119.539062 C 41.878906 119.171875 41.839844 119.140625 41.480469 119.140625 L 41.101562 119.140625 L 41.101562 118.191406 C 41.101562 117.351562 41.121094 117.242188 41.28125 117.242188 C 41.429688 117.242188 41.449219 117.140625 41.421875 116.292969 C 41.371094 115.171875 41.589844 113.734375 41.96875 112.644531 C 42.210938 111.925781 42.828125 110.644531 43.171875 110.164062 L 43.320312 109.945312 L 40.300781 109.945312 L 40.300781 108.046875 L 42.5 108.046875 L 42.5 107.144531 C 42.5 106.257812 42.5 106.246094 42.738281 106.246094 C 42.980469 106.246094 42.988281 106.21875 43.019531 105.386719 C 43.039062 104.917969 43.03125 104.507812 43.011719 104.488281 C 42.988281 104.46875 42.25 104.449219 41.378906 104.449219 C 40.199219 104.449219 39.78125 104.476562 39.75 104.566406 Z M 39.75 104.566406 "/>
<path style=" stroke:none;fill-rule:nonzero;fill:rgb(0%,0%,0%);fill-opacity:1;" d="M 51.441406 106.558594 C 51.191406 106.875 51.21875 106.898438 51.828125 106.867188 C 52.171875 106.847656 52.828125 106.898438 53.300781 106.976562 C 53.769531 107.054688 54.160156 107.117188 54.171875 107.105469 C 54.179688 107.097656 54.171875 106.996094 54.140625 106.875 C 54.078125 106.65625 53.890625 106.605469 52.351562 106.488281 C 51.730469 106.4375 51.519531 106.457031 51.441406 106.558594 Z M 51.441406 106.558594 "/>
<path style=" stroke:none;fill-rule:nonzero;fill:rgb(0%,0%,0%);fill-opacity:1;" d="M 49.128906 106.886719 C 48.851562 106.988281 48.828125 107.015625 48.949219 107.1875 C 49.070312 107.347656 49.128906 107.347656 49.429688 107.238281 C 49.738281 107.125 49.769531 107.085938 49.671875 106.925781 C 49.601562 106.828125 49.53125 106.757812 49.5 106.757812 C 49.46875 106.765625 49.308594 106.828125 49.128906 106.886719 Z M 49.128906 106.886719 "/>
<path style=" stroke:none;fill-rule:nonzero;fill:rgb(0%,0%,0%);fill-opacity:1;" d="M 54.5 106.867188 C 54.5 107.046875 54.710938 107.347656 54.839844 107.347656 C 54.921875 107.347656 55 107.265625 55.019531 107.167969 C 55.058594 107.027344 54.988281 106.945312 54.789062 106.875 C 54.609375 106.804688 54.5 106.796875 54.5 106.867188 Z M 54.5 106.867188 "/>
<path style=" stroke:none;fill-rule:nonzero;fill:rgb(0%,0%,0%);fill-opacity:1;" d="M 55.371094 107.117188 C 55.230469 107.246094 55.308594 107.527344 55.5 107.578125 C 55.640625 107.617188 55.699219 107.578125 55.699219 107.445312 C 55.699219 107.246094 55.46875 107.015625 55.371094 107.117188 Z M 55.371094 107.117188 "/>
<path style=" stroke:none;fill-rule:nonzero;fill:rgb(0%,0%,0%);fill-opacity:1;" d="M 56.101562 107.734375 C 56.230469 107.976562 56.398438 108.046875 56.628906 107.925781 C 56.859375 107.804688 57.050781 107.917969 56.898438 108.085938 C 56.820312 108.1875 56.980469 108.355469 57.550781 108.796875 C 58.339844 109.40625 58.898438 109.996094 59.589844 110.984375 L 60 111.574219 L 60 111.164062 C 60 110.816406 59.921875 110.65625 59.410156 110.015625 C 58.730469 109.175781 58.070312 108.585938 57.121094 107.964844 C 56.410156 107.507812 55.910156 107.394531 56.101562 107.734375 Z M 56.101562 107.734375 "/>
<path style=" stroke:none;fill-rule:nonzero;fill:rgb(0%,0%,0%);fill-opacity:1;" d="M 45.171875 109.335938 C 44.121094 110.445312 43.410156 111.613281 42.949219 112.972656 C 42.261719 115.003906 42.371094 117.839844 43.210938 119.660156 C 43.289062 119.859375 43.410156 119.941406 43.578125 119.941406 C 43.761719 119.941406 43.800781 119.910156 43.730469 119.808594 C 43.679688 119.75 43.539062 119.421875 43.421875 119.089844 C 42.710938 117.101562 42.710938 114.871094 43.421875 112.894531 C 43.96875 111.363281 45.121094 109.773438 46.339844 108.867188 L 46.628906 108.644531 L 46.230469 108.644531 C 45.859375 108.644531 45.769531 108.707031 45.171875 109.335938 Z M 45.171875 109.335938 "/>
<path style=" stroke:none;fill-rule:nonzero;fill:rgb(0%,0%,0%);fill-opacity:1;" d="M 51.480469 110.304688 L 51.449219 111.074219 L 50.800781 111.246094 C 50.171875 111.40625 49.519531 111.703125 49.199219 111.964844 C 48.308594 112.703125 48.011719 114.191406 48.539062 115.230469 C 48.828125 115.792969 49.648438 116.320312 50.621094 116.582031 C 51.570312 116.832031 51.5 116.730469 51.5 117.949219 C 51.5 118.839844 51.46875 119.058594 51.351562 119.101562 C 51.109375 119.199219 49.960938 118.871094 49.351562 118.539062 C 48.738281 118.210938 48.699219 118.199219 48.699219 118.332031 C 48.699219 118.378906 48.558594 118.71875 48.398438 119.082031 C 48.230469 119.449219 48.121094 119.789062 48.148438 119.839844 C 48.191406 119.898438 49.511719 119.941406 51.660156 119.941406 L 55.101562 119.941406 L 55.398438 119.519531 C 55.789062 118.980469 55.851562 118.761719 55.851562 117.839844 C 55.839844 117.242188 55.800781 117.023438 55.609375 116.710938 C 55.28125 116.183594 54.660156 115.792969 53.628906 115.460938 L 52.75 115.171875 L 52.71875 114.054688 C 52.691406 112.703125 52.710938 112.683594 53.789062 113.082031 C 54.210938 113.234375 54.621094 113.375 54.710938 113.402344 C 54.839844 113.441406 54.949219 113.285156 55.191406 112.695312 C 55.371094 112.273438 55.5 111.914062 55.480469 111.894531 C 55.191406 111.644531 53.78125 111.195312 53.050781 111.125 L 52.75 111.09375 L 52.71875 110.316406 L 52.691406 109.546875 L 51.511719 109.546875 Z M 51.5 113.914062 L 51.5 114.863281 L 51.230469 114.792969 C 50.539062 114.621094 50.191406 113.882812 50.558594 113.363281 C 50.71875 113.132812 51.289062 112.832031 51.429688 112.914062 C 51.46875 112.933594 51.5 113.382812 51.5 113.914062 Z M 53.5 117.542969 C 54.039062 118.039062 53.769531 118.859375 53.03125 119 L 52.699219 119.058594 L 52.699219 118.171875 C 52.699219 117.679688 52.730469 117.25 52.761719 117.222656 C 52.859375 117.113281 53.199219 117.261719 53.5 117.542969 Z M 53.5 117.542969 "/>
<path style=" stroke:none;fill-rule:nonzero;fill:rgb(0%,0%,0%);fill-opacity:1;" d="M 30.101562 111.804688 C 30.101562 113.125 30.128906 113.652344 30.210938 113.625 C 30.28125 113.601562 30.328125 113.242188 30.339844 112.695312 L 30.351562 111.792969 L 30.628906 111.765625 L 30.898438 111.734375 L 30.898438 109.984375 L 30.5 109.976562 L 30.101562 109.953125 Z M 30.101562 111.804688 "/>
<path style=" stroke:none;fill-rule:nonzero;fill:rgb(0%,0%,0%);fill-opacity:1;" d="M 60.101562 111.425781 C 60.101562 111.664062 60.160156 111.972656 60.238281 112.125 C 60.511719 112.652344 60.890625 113.902344 61.011719 114.644531 C 61.238281 116.132812 60.988281 118.121094 60.390625 119.511719 L 60.210938 119.941406 L 60.449219 119.941406 C 60.640625 119.941406 60.71875 119.851562 60.878906 119.410156 C 61.351562 118.160156 61.449219 117.550781 61.449219 115.941406 C 61.441406 114.800781 61.390625 114.222656 61.269531 113.742188 C 61.011719 112.773438 60.660156 111.925781 60.289062 111.3125 L 60.101562 110.996094 Z M 60.101562 111.425781 "/>
<path style=" stroke:none;fill-rule:nonzero;fill:rgb(0%,0%,0%);fill-opacity:1;" d="M 30.101562 116.363281 L 30.101562 117.242188 L 31.300781 117.242188 L 31.300781 115.492188 L 30.101562 115.492188 Z M 30.101562 116.363281 "/>
<path style=" stroke:none;fill-rule:nonzero;fill:rgb(0%,0%,0%);fill-opacity:1;" d="M 30.101562 119.539062 L 30.101562 119.941406 L 30.898438 119.941406 L 30.898438 119.140625 L 30.101562 119.140625 Z M 30.101562 119.539062 "/>
<path style=" stroke:none;fill-rule:nonzero;fill:rgb(0%,0%,0%);fill-opacity:1;" d="M 20.28125 120.507812 C 20.25 120.949219 20.230469 120.988281 19.980469 121.019531 L 19.699219 121.050781 L 19.699219 122.828125 L 18.878906 122.859375 L 18.050781 122.886719 L 17.988281 124.527344 L 18.921875 124.558594 L 19.851562 124.585938 L 19.878906 125.507812 L 19.910156 126.4375 L 30 126.4375 L 30 124.636719 L 28.691406 124.636719 L 28.71875 123.707031 L 28.75 122.789062 L 29.378906 122.757812 L 30 122.730469 L 30 120.039062 L 20.308594 120.039062 Z M 20.28125 120.507812 "/>
<path style=" stroke:none;fill-rule:nonzero;fill:rgb(0%,0%,0%);fill-opacity:1;" d="M 30.101562 121.390625 C 30.101562 122.898438 30.269531 123.269531 30.320312 121.859375 C 30.351562 120.988281 30.351562 120.988281 30.628906 120.960938 C 30.878906 120.929688 30.898438 120.890625 30.898438 120.480469 L 30.898438 120.039062 L 30.101562 120.039062 Z M 30.101562 121.390625 "/>
<path style=" stroke:none;fill-rule:nonzero;fill:rgb(0%,0%,0%);fill-opacity:1;" d="M 40.300781 120.488281 C 40.300781 120.917969 40.28125 120.949219 40 121 L 39.699219 121.058594 L 39.699219 122.839844 L 38.109375 122.839844 L 38.078125 123.699219 C 38.058594 124.167969 38.070312 124.578125 38.089844 124.597656 C 38.109375 124.617188 38.53125 124.636719 39.019531 124.636719 L 39.898438 124.636719 L 39.898438 126.4375 L 43.199219 126.4375 L 43.199219 125.636719 C 43.199219 125.199219 43.199219 124.808594 43.199219 124.757812 C 43.199219 124.71875 42.828125 124.675781 42.378906 124.667969 C 41.921875 124.65625 41.511719 124.648438 41.46875 124.636719 C 41.429688 124.636719 41.410156 124.21875 41.421875 123.707031 L 41.449219 122.789062 L 42.230469 122.757812 L 43 122.730469 L 43 122.160156 C 43 121.699219 42.929688 121.4375 42.628906 120.820312 L 42.25 120.050781 L 41.28125 120.050781 L 40.300781 120.039062 Z M 40.300781 120.488281 "/>
<path style=" stroke:none;fill-rule:nonzero;fill:rgb(0%,0%,0%);fill-opacity:1;" d="M 43.398438 120.089844 C 43.398438 120.210938 43.738281 120.800781 44.121094 121.371094 C 45.699219 123.699219 48.398438 125.246094 51.308594 125.476562 C 52.21875 125.558594 53.648438 125.40625 54.628906 125.136719 C 56.351562 124.65625 58.238281 123.410156 59.378906 122 C 59.921875 121.320312 60 121.179688 59.988281 120.808594 C 59.988281 120.441406 59.96875 120.410156 59.871094 120.578125 C 58.878906 122.160156 57.558594 123.367188 55.941406 124.167969 C 52.488281 125.878906 48.398438 125.199219 45.589844 122.4375 C 45 121.859375 43.898438 120.359375 43.898438 120.128906 C 43.898438 120.078125 43.789062 120.039062 43.648438 120.039062 C 43.511719 120.039062 43.398438 120.058594 43.398438 120.089844 Z M 43.398438 120.089844 "/>
<path style=" stroke:none;fill-rule:nonzero;fill:rgb(0%,0%,0%);fill-opacity:1;" d="M 48.558594 120.121094 C 48.75 120.300781 49.871094 120.640625 50.648438 120.769531 L 51.449219 120.898438 L 51.480469 121.621094 L 51.511719 122.339844 L 52.699219 122.339844 L 52.699219 121.648438 C 52.699219 120.871094 52.75 120.800781 53.371094 120.699219 C 53.75 120.640625 54.898438 120.179688 54.898438 120.078125 C 54.898438 120.058594 53.449219 120.039062 51.679688 120.039062 C 49.910156 120.039062 48.5 120.078125 48.558594 120.121094 Z M 48.558594 120.121094 "/>
<path style=" stroke:none;fill-rule:nonzero;fill:rgb(0%,0%,0%);fill-opacity:1;" d="M 60.101562 120.507812 L 60.101562 120.988281 L 60.351562 120.589844 C 60.660156 120.089844 60.660156 120.039062 60.351562 120.039062 C 60.121094 120.039062 60.101562 120.070312 60.101562 120.507812 Z M 60.101562 120.507812 "/>
<path style=" stroke:none;fill-rule:nonzero;fill:rgb(0%,0%,0%);fill-opacity:1;" d="M 136.640625 120.210938 C 137.578125 123.507812 137.699219 123.949219 138.019531 125.136719 C 138.191406 125.765625 138.390625 126.488281 138.460938 126.738281 C 138.730469 127.65625 139.21875 129.425781 139.539062 130.585938 C 140.039062 132.363281 140 132.304688 140.589844 132.382812 C 141.03125 132.445312 141.828125 132.382812 142.011719 132.273438 C 142.039062 132.253906 141.988281 131.933594 141.890625 131.5625 C 141.71875 130.914062 141.601562 130.496094 140.75 127.484375 C 140.539062 126.765625 140.339844 126.046875 140.300781 125.886719 C 140.261719 125.71875 140.058594 124.996094 139.851562 124.289062 C 139.648438 123.566406 139.449219 122.847656 139.398438 122.6875 C 139.328125 122.390625 139.128906 121.679688 138.828125 120.609375 L 138.660156 120.039062 L 137.621094 120.039062 C 136.679688 120.039062 136.589844 120.058594 136.640625 120.210938 Z M 136.640625 120.210938 "/>
<path style=" stroke:none;fill-rule:nonzero;fill:rgb(0%,0%,0%);fill-opacity:1;" d="M 30.101562 125.527344 C 30.101562 126.367188 30.109375 126.4375 30.300781 126.4375 C 30.480469 126.4375 30.5 126.367188 30.5 125.636719 C 30.5 125.199219 30.511719 124.808594 30.53125 124.757812 C 30.539062 124.71875 30.449219 124.675781 30.328125 124.65625 C 30.109375 124.628906 30.101562 124.648438 30.101562 125.527344 Z M 30.101562 125.527344 "/>
<path style=" stroke:none;fill-rule:nonzero;fill:rgb(0%,0%,0%);fill-opacity:1;" d="M 0 154.972656 L 0 160.019531 L 150 160.019531 L 150 149.925781 L 0 149.925781 Z M 6.828125 153.34375 C 7.019531 153.632812 7.308594 154.132812 7.488281 154.441406 L 7.808594 155.023438 L 7.328125 155.84375 C 7.058594 156.300781 6.769531 156.683594 6.691406 156.703125 C 6.601562 156.710938 6.449219 156.570312 6.328125 156.351562 C 6.121094 155.972656 6.121094 155.972656 6.308594 155.621094 C 6.539062 155.191406 6.550781 154.792969 6.339844 154.421875 C 5.871094 153.632812 4.660156 153.632812 4.25 154.421875 C 3.839844 155.210938 4.328125 156.09375 5.230469 156.191406 C 5.628906 156.242188 5.730469 156.300781 5.910156 156.589844 C 6.25 157.140625 6.140625 157.222656 5.078125 157.222656 C 4.570312 157.222656 4.101562 157.179688 4.050781 157.140625 C 3.910156 157.050781 2.800781 155.132812 2.800781 154.992188 C 2.800781 154.933594 3.070312 154.421875 3.410156 153.851562 L 4.019531 152.824219 L 6.5 152.824219 Z M 27.769531 156.140625 C 27.761719 156.761719 27.738281 156.261719 27.738281 155.023438 C 27.738281 153.78125 27.761719 153.285156 27.769531 153.894531 C 27.789062 154.511719 27.789062 155.53125 27.769531 156.140625 Z M 9.398438 153.671875 C 9.398438 153.875 9.351562 153.921875 9.148438 153.921875 C 8.949219 153.921875 8.898438 153.875 8.898438 153.671875 C 8.898438 153.472656 8.949219 153.421875 9.148438 153.421875 C 9.351562 153.421875 9.398438 153.472656 9.398438 153.671875 Z M 24.898438 153.972656 C 24.898438 154.152344 24.949219 154.222656 25.101562 154.222656 C 25.230469 154.222656 25.300781 154.292969 25.300781 154.414062 C 25.300781 154.511719 25.210938 154.621094 25.101562 154.652344 C 24.941406 154.691406 24.898438 154.792969 24.898438 155.171875 C 24.898438 155.550781 24.941406 155.652344 25.101562 155.691406 C 25.210938 155.722656 25.300781 155.832031 25.300781 155.933594 C 25.300781 156.070312 25.230469 156.121094 25.019531 156.121094 C 24.609375 156.121094 24.5 155.953125 24.5 155.292969 C 24.5 154.792969 24.46875 154.691406 24.300781 154.652344 C 24.191406 154.621094 24.101562 154.542969 24.101562 154.460938 C 24.101562 154.394531 24.191406 154.28125 24.300781 154.222656 C 24.410156 154.164062 24.5 154.023438 24.5 153.921875 C 24.5 153.792969 24.570312 153.722656 24.699219 153.722656 C 24.851562 153.722656 24.898438 153.792969 24.898438 153.972656 Z M 133.300781 154.753906 L 133.300781 155.78125 L 132.851562 155.800781 C 132.488281 155.8125 132.378906 155.773438 132.25 155.601562 C 132.050781 155.3125 132.058594 154.824219 132.261719 154.53125 C 132.398438 154.34375 132.488281 154.3125 132.761719 154.351562 C 133.089844 154.414062 133.101562 154.402344 133.101562 154.0625 C 133.101562 153.875 133.148438 153.722656 133.199219 153.722656 C 133.261719 153.722656 133.300781 154.132812 133.300781 154.753906 Z M 42.898438 154.871094 C 42.898438 155.503906 42.859375 155.921875 42.800781 155.921875 C 42.738281 155.921875 42.699219 155.503906 42.699219 154.871094 C 42.699219 154.242188 42.738281 153.824219 42.800781 153.824219 C 42.859375 153.824219 42.898438 154.242188 42.898438 154.871094 Z M 43.5 154.871094 C 43.5 155.503906 43.460938 155.921875 43.398438 155.921875 C 43.339844 155.921875 43.300781 155.503906 43.300781 154.871094 C 43.300781 154.242188 43.339844 153.824219 43.398438 153.824219 C 43.460938 153.824219 43.5 154.242188 43.5 154.871094 Z M 131.699219 154.824219 C 131.699219 155.421875 131.660156 155.820312 131.601562 155.820312 C 131.539062 155.820312 131.5 155.421875 131.5 154.824219 C 131.5 154.222656 131.539062 153.824219 131.601562 153.824219 C 131.660156 153.824219 131.699219 154.222656 131.699219 154.824219 Z M 135.679688 154.84375 L 135.660156 155.871094 L 135.628906 154.984375 L 135.589844 154.101562 L 135.300781 154.164062 C 135.128906 154.191406 135 154.183594 135 154.144531 C 135 154.074219 135.429688 153.863281 135.628906 153.832031 C 135.671875 153.824219 135.691406 154.28125 135.679688 154.84375 Z M 137.519531 153.992188 C 137.769531 154.214844 137.78125 155.371094 137.53125 155.640625 C 137.339844 155.863281 137.011719 155.871094 136.738281 155.683594 C 136.578125 155.5625 136.550781 155.414062 136.550781 154.824219 C 136.550781 154.234375 136.578125 154.082031 136.738281 153.964844 C 137 153.773438 137.289062 153.78125 137.519531 153.992188 Z M 139.101562 154.523438 C 139.101562 155.121094 139.128906 155.222656 139.28125 155.230469 C 139.441406 155.242188 139.441406 155.253906 139.28125 155.292969 C 139.171875 155.324219 139.101562 155.433594 139.101562 155.582031 C 139.101562 155.710938 139.058594 155.820312 139 155.820312 C 138.949219 155.820312 138.898438 155.710938 138.898438 155.570312 C 138.898438 155.34375 138.859375 155.324219 138.449219 155.324219 C 138.199219 155.324219 138 155.300781 138 155.273438 C 138 155.152344 138.921875 153.824219 139 153.824219 C 139.058594 153.824219 139.101562 154.132812 139.101562 154.523438 Z M 140.640625 153.984375 C 140.828125 154.171875 140.851562 154.472656 140.671875 154.632812 C 140.558594 154.742188 140.570312 154.792969 140.71875 154.941406 C 140.820312 155.042969 140.898438 155.191406 140.898438 155.273438 C 140.898438 155.511719 140.519531 155.820312 140.230469 155.820312 C 139.71875 155.820312 139.390625 155.222656 139.75 154.921875 C 139.871094 154.824219 139.871094 154.773438 139.730469 154.5625 C 139.589844 154.34375 139.589844 154.304688 139.738281 154.074219 C 139.929688 153.78125 140.398438 153.734375 140.640625 153.984375 Z M 142.140625 153.984375 C 142.519531 154.351562 142.460938 155.230469 142.050781 155.59375 C 141.789062 155.820312 141.328125 155.910156 141.449219 155.722656 C 141.480469 155.664062 141.601562 155.621094 141.699219 155.621094 C 141.988281 155.621094 142.179688 155.230469 142.160156 154.683594 C 142.148438 154.3125 142.101562 154.164062 141.949219 154.0625 C 141.769531 153.941406 141.710938 153.953125 141.519531 154.082031 C 141.078125 154.394531 141.371094 155.101562 141.890625 154.972656 C 142.078125 154.921875 142.121094 154.933594 142.039062 155.023438 C 141.839844 155.230469 141.359375 155.101562 141.21875 154.792969 C 140.910156 154.152344 141.660156 153.492188 142.140625 153.984375 Z M 143.898438 153.921875 C 143.898438 153.972656 143.71875 154.023438 143.5 154.023438 C 143.28125 154.023438 143.101562 154.0625 143.101562 154.113281 C 143.101562 154.164062 143.070312 154.273438 143.039062 154.363281 C 142.988281 154.492188 143.050781 154.523438 143.328125 154.523438 C 143.589844 154.523438 143.730469 154.582031 143.839844 154.742188 C 144.300781 155.402344 143.558594 156.183594 142.980469 155.652344 C 142.878906 155.5625 142.800781 155.421875 142.800781 155.34375 C 142.800781 155.242188 142.878906 155.28125 143.050781 155.460938 C 143.328125 155.761719 143.429688 155.78125 143.640625 155.5625 C 143.929688 155.28125 143.75 154.621094 143.390625 154.621094 C 143.328125 154.621094 143.199219 154.671875 143.089844 154.722656 C 142.910156 154.824219 142.898438 154.792969 142.898438 154.324219 L 142.898438 153.824219 L 143.398438 153.824219 C 143.679688 153.824219 143.898438 153.863281 143.898438 153.921875 Z M 145.300781 154.523438 C 145.300781 155.121094 145.328125 155.222656 145.480469 155.230469 C 145.640625 155.242188 145.640625 155.253906 145.480469 155.292969 C 145.371094 155.324219 145.300781 155.433594 145.300781 155.582031 C 145.300781 155.710938 145.261719 155.820312 145.199219 155.820312 C 145.148438 155.820312 145.101562 155.710938 145.101562 155.570312 C 145.101562 155.34375 145.058594 155.324219 144.648438 155.324219 C 144.398438 155.324219 144.199219 155.300781 144.199219 155.273438 C 144.199219 155.152344 145.121094 153.824219 145.199219 153.824219 C 145.261719 153.824219 145.300781 154.132812 145.300781 154.523438 Z M 147.011719 154.042969 C 146.75 154.722656 146.171875 155.863281 146.140625 155.761719 C 146.109375 155.710938 146.25 155.3125 146.449219 154.902344 C 146.640625 154.484375 146.800781 154.09375 146.800781 154.03125 C 146.800781 153.984375 146.539062 153.914062 146.230469 153.894531 C 145.671875 153.863281 145.671875 153.863281 146.371094 153.84375 C 147.078125 153.824219 147.089844 153.824219 147.011719 154.042969 Z M 30.359375 154.824219 C 30.511719 155.261719 30.648438 155.601562 30.671875 155.582031 C 30.691406 155.570312 30.828125 155.203125 30.988281 154.761719 C 31.148438 154.332031 31.328125 153.964844 31.390625 153.941406 C 31.449219 153.921875 31.359375 154.28125 31.191406 154.742188 C 31.019531 155.191406 30.851562 155.652344 30.828125 155.753906 C 30.730469 156.082031 30.550781 155.863281 30.230469 155.011719 C 29.898438 154.132812 29.839844 153.875 29.988281 153.964844 C 30.039062 153.992188 30.199219 154.382812 30.359375 154.824219 Z M 39.679688 154.082031 C 39.800781 154.164062 39.898438 154.3125 39.898438 154.402344 C 39.898438 154.542969 39.859375 154.523438 39.71875 154.34375 C 39.578125 154.164062 39.460938 154.113281 39.191406 154.144531 C 38.898438 154.164062 38.851562 154.214844 38.851562 154.421875 C 38.851562 154.613281 38.929688 154.703125 39.25 154.824219 C 39.828125 155.042969 39.898438 155.101562 39.898438 155.421875 C 39.898438 155.761719 39.671875 155.921875 39.210938 155.921875 C 38.910156 155.921875 38.5 155.632812 38.5 155.421875 C 38.5 155.261719 38.601562 155.300781 38.789062 155.53125 C 38.988281 155.78125 39.449219 155.8125 39.660156 155.601562 C 39.878906 155.390625 39.730469 155.152344 39.320312 155.011719 C 38.640625 154.792969 38.441406 154.460938 38.769531 154.101562 C 38.96875 153.882812 39.378906 153.875 39.679688 154.082031 Z M 34.800781 154.222656 C 34.800781 154.34375 34.871094 154.421875 34.980469 154.421875 C 35.140625 154.433594 35.140625 154.433594 34.980469 154.53125 C 34.738281 154.671875 34.71875 155.722656 34.949219 155.722656 C 35.03125 155.722656 35.101562 155.761719 35.101562 155.820312 C 35.101562 155.871094 35.03125 155.921875 34.949219 155.921875 C 34.75 155.921875 34.601562 155.523438 34.601562 154.960938 C 34.601562 154.683594 34.558594 154.523438 34.480469 154.511719 C 34.378906 154.511719 34.378906 154.492188 34.480469 154.453125 C 34.539062 154.433594 34.601562 154.324219 34.601562 154.214844 C 34.601562 154.113281 34.648438 154.023438 34.699219 154.023438 C 34.761719 154.023438 34.800781 154.113281 34.800781 154.222656 Z M 40.730469 154.433594 L 40.949219 154.433594 L 40.730469 154.523438 C 40.539062 154.601562 40.5 154.691406 40.5 155.0625 C 40.5 155.402344 40.558594 155.570312 40.730469 155.722656 L 40.949219 155.941406 L 40.699219 155.902344 C 40.46875 155.871094 40.449219 155.832031 40.421875 155.273438 C 40.398438 154.851562 40.339844 154.632812 40.230469 154.542969 C 40.070312 154.433594 40.070312 154.421875 40.230469 154.421875 C 40.339844 154.421875 40.410156 154.332031 40.410156 154.191406 L 40.429688 153.972656 L 40.46875 154.191406 C 40.5 154.34375 40.589844 154.421875 40.730469 154.433594 Z M 5.828125 154.542969 C 6.378906 155.183594 5.519531 156.050781 4.820312 155.5625 C 4.660156 155.453125 4.601562 155.3125 4.601562 155.03125 C 4.601562 154.3125 5.359375 154.003906 5.828125 154.542969 Z M 9.378906 155.203125 L 9.410156 156.121094 L 9.148438 156.121094 C 8.898438 156.121094 8.898438 156.121094 8.898438 155.242188 C 8.898438 154.324219 8.941406 154.191406 9.199219 154.242188 C 9.320312 154.273438 9.359375 154.460938 9.378906 155.203125 Z M 11.359375 154.472656 C 11.621094 154.734375 11.609375 154.921875 11.339844 154.921875 C 11.25 154.921875 11.121094 154.851562 11.03125 154.761719 C 10.808594 154.550781 10.480469 154.621094 10.308594 154.941406 C 10.179688 155.171875 10.179688 155.242188 10.300781 155.460938 C 10.449219 155.753906 10.890625 155.820312 11.089844 155.582031 C 11.199219 155.441406 11.601562 155.472656 11.601562 155.613281 C 11.601562 155.730469 11.160156 156.09375 10.941406 156.160156 C 10.421875 156.320312 9.800781 155.792969 9.800781 155.191406 C 9.800781 154.363281 10.789062 153.902344 11.359375 154.472656 Z M 13.410156 154.511719 C 14.171875 155.28125 13.328125 156.53125 12.359375 156.070312 C 11.441406 155.632812 11.738281 154.222656 12.75 154.222656 C 13.019531 154.222656 13.191406 154.304688 13.410156 154.511719 Z M 14.558594 154.332031 C 14.601562 154.414062 14.648438 154.414062 14.730469 154.332031 C 14.859375 154.203125 15.289062 154.191406 15.46875 154.304688 C 15.671875 154.433594 15.800781 154.914062 15.800781 155.53125 C 15.800781 156.09375 15.789062 156.121094 15.550781 156.121094 C 15.308594 156.121094 15.300781 156.101562 15.300781 155.433594 C 15.300781 154.824219 15.28125 154.734375 15.101562 154.671875 C 14.738281 154.5625 14.601562 154.792969 14.601562 155.480469 C 14.601562 156.101562 14.589844 156.121094 14.351562 156.121094 C 14.101562 156.121094 14.101562 156.113281 14.101562 155.242188 C 14.101562 154.753906 14.128906 154.324219 14.171875 154.292969 C 14.269531 154.183594 14.480469 154.214844 14.558594 154.332031 Z M 17.410156 154.433594 C 17.609375 154.632812 17.609375 154.652344 17.449219 154.742188 C 17.339844 154.8125 17.238281 154.800781 17.171875 154.734375 C 17.109375 154.671875 16.960938 154.621094 16.828125 154.621094 C 16.5 154.621094 16.539062 154.902344 16.878906 154.984375 C 17.320312 155.082031 17.601562 155.3125 17.601562 155.5625 C 17.601562 156.132812 16.660156 156.390625 16.28125 155.921875 C 16.109375 155.710938 16.101562 155.683594 16.25 155.59375 C 16.359375 155.53125 16.46875 155.550781 16.601562 155.671875 C 16.808594 155.863281 17.148438 155.84375 17.148438 155.632812 C 17.148438 155.5625 16.96875 155.441406 16.761719 155.371094 C 16.550781 155.292969 16.328125 155.171875 16.289062 155.101562 C 15.890625 154.484375 16.878906 153.902344 17.410156 154.433594 Z M 19.378906 154.421875 C 19.5 154.542969 19.601562 154.671875 19.601562 154.734375 C 19.601562 154.914062 19.289062 154.953125 19.109375 154.78125 C 18.890625 154.582031 18.710938 154.582031 18.480469 154.792969 C 18.128906 155.101562 18.328125 155.722656 18.769531 155.722656 C 18.921875 155.722656 19.109375 155.652344 19.191406 155.582031 C 19.300781 155.480469 19.398438 155.460938 19.5 155.523438 C 19.699219 155.640625 19.53125 155.921875 19.160156 156.101562 C 18.828125 156.273438 18.28125 156.113281 18.050781 155.792969 C 17.871094 155.53125 17.859375 154.832031 18.03125 154.613281 C 18.359375 154.191406 19.03125 154.09375 19.378906 154.421875 Z M 21.371094 154.371094 C 21.628906 154.5625 21.839844 155.140625 21.75 155.441406 C 21.570312 156.003906 21.058594 156.292969 20.539062 156.121094 C 20.109375 155.972656 19.898438 155.671875 19.898438 155.191406 C 19.898438 154.441406 20.769531 153.953125 21.371094 154.371094 Z M 22.601562 154.921875 C 22.601562 155.492188 22.628906 155.632812 22.789062 155.710938 C 23.121094 155.890625 23.289062 155.640625 23.320312 154.921875 C 23.351562 154.332031 23.371094 154.273438 23.578125 154.242188 C 23.789062 154.214844 23.800781 154.234375 23.800781 155.164062 C 23.800781 156.050781 23.789062 156.121094 23.601562 156.121094 C 23.488281 156.121094 23.398438 156.070312 23.398438 156.023438 C 23.398438 155.960938 23.289062 155.992188 23.148438 156.082031 C 22.941406 156.222656 22.851562 156.222656 22.601562 156.121094 C 22.261719 155.980469 22.101562 155.5625 22.101562 154.8125 C 22.101562 154.3125 22.148438 154.222656 22.421875 154.222656 C 22.578125 154.222656 22.601562 154.3125 22.601562 154.921875 Z M 133.898438 154.421875 C 133.898438 154.472656 133.859375 154.523438 133.800781 154.523438 C 133.75 154.523438 133.699219 154.472656 133.699219 154.421875 C 133.699219 154.363281 133.75 154.324219 133.800781 154.324219 C 133.859375 154.324219 133.898438 154.363281 133.898438 154.421875 Z M 32.640625 154.644531 C 32.910156 155.023438 32.839844 155.121094 32.320312 155.121094 C 31.738281 155.121094 31.679688 155.171875 31.820312 155.480469 C 31.941406 155.753906 32.148438 155.820312 32.480469 155.703125 C 32.730469 155.621094 32.789062 155.761719 32.539062 155.863281 C 32.039062 156.050781 31.601562 155.730469 31.601562 155.171875 C 31.601562 154.523438 32.308594 154.164062 32.640625 154.644531 Z M 34.011719 154.523438 C 34.109375 154.582031 34.199219 154.703125 34.199219 154.78125 C 34.199219 154.914062 34.148438 154.890625 33.929688 154.734375 C 33.699219 154.542969 33.640625 154.53125 33.460938 154.652344 C 33.148438 154.863281 33.121094 155.453125 33.410156 155.652344 C 33.640625 155.820312 33.878906 155.773438 34.070312 155.53125 C 34.179688 155.390625 34.191406 155.390625 34.199219 155.550781 C 34.199219 155.773438 33.789062 155.960938 33.46875 155.882812 C 33.179688 155.8125 32.949219 155.332031 33.039062 154.984375 C 33.160156 154.484375 33.570312 154.292969 34.011719 154.523438 Z M 36.488281 154.683594 C 36.609375 154.832031 36.699219 155.050781 36.699219 155.171875 C 36.699219 155.292969 36.609375 155.511719 36.488281 155.664062 C 36.070312 156.191406 35.351562 155.871094 35.371094 155.140625 C 35.390625 154.472656 36.101562 154.183594 36.488281 154.683594 Z M 37.699219 154.523438 C 37.699219 154.574219 37.601562 154.621094 37.480469 154.644531 C 37.269531 154.671875 37.25 154.734375 37.21875 155.292969 C 37.179688 156.171875 37 156.082031 37 155.191406 L 37 154.453125 L 37.351562 154.441406 C 37.539062 154.433594 37.699219 154.472656 37.699219 154.523438 Z M 42.140625 154.644531 C 42.320312 154.890625 42.359375 155.921875 42.199219 155.921875 C 42.148438 155.921875 42.101562 155.871094 42.101562 155.800781 C 42.101562 155.710938 42.070312 155.710938 41.980469 155.800781 C 41.710938 156.070312 41.101562 155.882812 41.101562 155.53125 C 41.101562 155.273438 41.421875 155.023438 41.769531 155.023438 C 41.988281 155.023438 42.101562 154.972656 42.101562 154.871094 C 42.101562 154.621094 41.761719 154.523438 41.460938 154.683594 C 41.078125 154.871094 41.039062 154.863281 41.25 154.621094 C 41.488281 154.351562 41.949219 154.363281 42.140625 154.644531 Z M 133.898438 155.722656 C 133.898438 155.773438 133.859375 155.820312 133.800781 155.820312 C 133.75 155.820312 133.699219 155.773438 133.699219 155.722656 C 133.699219 155.664062 133.75 155.621094 133.800781 155.621094 C 133.859375 155.621094 133.898438 155.664062 133.898438 155.722656 Z M 133.898438 155.722656 "/>
<path style=" stroke:none;fill-rule:nonzero;fill:rgb(0%,0%,0%);fill-opacity:1;" d="M 132.359375 154.671875 C 132.269531 154.902344 132.289062 155.351562 132.390625 155.503906 C 132.441406 155.582031 132.601562 155.621094 132.761719 155.601562 C 133.039062 155.570312 133.050781 155.550781 133.050781 155.074219 C 133.050781 154.582031 133.039062 154.574219 132.738281 154.542969 C 132.519531 154.523438 132.410156 154.5625 132.359375 154.671875 Z M 132.359375 154.671875 "/>
<path style=" stroke:none;fill-rule:nonzero;fill:rgb(0%,0%,0%);fill-opacity:1;" d="M 137 154.003906 C 136.761719 154.082031 136.699219 154.242188 136.699219 154.84375 C 136.699219 155.3125 136.738281 155.433594 136.921875 155.5625 C 137.210938 155.773438 137.46875 155.613281 137.558594 155.171875 C 137.691406 154.453125 137.410156 153.863281 137 154.003906 Z M 137 154.003906 "/>
<path style=" stroke:none;fill-rule:nonzero;fill:rgb(0%,0%,0%);fill-opacity:1;" d="M 138.511719 154.722656 L 138.199219 155.222656 L 138.898438 155.222656 L 138.898438 154.722656 C 138.898438 154.441406 138.878906 154.222656 138.859375 154.222656 C 138.839844 154.222656 138.679688 154.441406 138.511719 154.722656 Z M 138.511719 154.722656 "/>
<path style=" stroke:none;fill-rule:nonzero;fill:rgb(0%,0%,0%);fill-opacity:1;" d="M 140.078125 153.992188 C 139.839844 154.054688 139.75 154.414062 139.929688 154.59375 C 140.03125 154.691406 140.171875 154.722656 140.339844 154.683594 C 140.839844 154.5625 140.578125 153.882812 140.078125 153.992188 Z M 140.078125 153.992188 "/>
<path style=" stroke:none;fill-rule:nonzero;fill:rgb(0%,0%,0%);fill-opacity:1;" d="M 139.980469 154.933594 C 139.570312 155.164062 139.921875 155.820312 140.371094 155.652344 C 140.71875 155.523438 140.800781 155.230469 140.539062 154.984375 C 140.359375 154.800781 140.21875 154.78125 139.980469 154.933594 Z M 139.980469 154.933594 "/>
<path style=" stroke:none;fill-rule:nonzero;fill:rgb(0%,0%,0%);fill-opacity:1;" d="M 144.710938 154.722656 L 144.398438 155.222656 L 145.101562 155.222656 L 145.101562 154.722656 C 145.101562 154.441406 145.078125 154.222656 145.058594 154.222656 C 145.039062 154.222656 144.878906 154.441406 144.710938 154.722656 Z M 144.710938 154.722656 "/>
<path style=" stroke:none;fill-rule:nonzero;fill:rgb(0%,0%,0%);fill-opacity:1;" d="M 12.339844 154.863281 C 12.199219 155.082031 12.199219 155.171875 12.300781 155.414062 C 12.488281 155.871094 13.039062 155.902344 13.210938 155.453125 C 13.441406 154.832031 12.699219 154.324219 12.339844 154.863281 Z M 12.339844 154.863281 "/>
<path style=" stroke:none;fill-rule:nonzero;fill:rgb(0%,0%,0%);fill-opacity:1;" d="M 20.441406 154.882812 C 20.101562 155.382812 20.609375 155.992188 21.089844 155.664062 C 21.488281 155.382812 21.28125 154.621094 20.800781 154.621094 C 20.691406 154.621094 20.53125 154.742188 20.441406 154.882812 Z M 20.441406 154.882812 "/>
<path style=" stroke:none;fill-rule:nonzero;fill:rgb(0%,0%,0%);fill-opacity:1;" d="M 31.980469 154.632812 C 31.648438 154.824219 31.769531 155.023438 32.199219 155.023438 C 32.640625 155.023438 32.75 154.8125 32.410156 154.621094 C 32.179688 154.503906 32.191406 154.503906 31.980469 154.632812 Z M 31.980469 154.632812 "/>
<path style=" stroke:none;fill-rule:nonzero;fill:rgb(0%,0%,0%);fill-opacity:1;" d="M 35.589844 154.863281 C 35.351562 155.382812 35.761719 155.953125 36.199219 155.722656 C 36.449219 155.582031 36.558594 155.171875 36.410156 154.863281 C 36.261719 154.523438 35.738281 154.523438 35.589844 154.863281 Z M 35.589844 154.863281 "/>
<path style=" stroke:none;fill-rule:nonzero;fill:rgb(0%,0%,0%);fill-opacity:1;" d="M 41.449219 155.261719 C 41.210938 155.433594 41.320312 155.722656 41.628906 155.722656 C 41.910156 155.722656 42.101562 155.550781 42.101562 155.300781 C 42.101562 155.082031 41.730469 155.0625 41.449219 155.261719 Z M 41.449219 155.261719 "/>
</g>
</svg>
